<svg width="48px" height="48px" viewBox="0 0 48 48" version="1.1" xmlns="http://www.w3.org/2000/svg" xmlns:xlink="http://www.w3.org/1999/xlink"><g fill-rule="nonzero"><rect fill="#2D51E7" x="0" y="0" width="48" height="48" rx="7"></rect><g transform="translate(10.000000, 14.000000)" stroke="#FFFFFF"><rect stroke-width="1.2173913" fill="#2D51E7" x="5.47826087" y="10.1086957" width="11.7826087" height="7.7826087" rx="3.65217391"></rect><rect fill="#FFFFFF" x="11.4565217" y="13.5625" width="1" height="3.75"></rect><path d="M26.1321878,14.25 C26.1321878,14.25 26.1321878,9.5 26.1321878,0 C23.2916081,0.791666667 20.6539269,2.17708333 18.2191443,4.15625 C14.5669704,7.125 20.0452313,13.0625 26.1321878,14.25 Z" stroke-width="1.2173913" fill="#2D51E7"></path><path d="M12.173913,13.0625 C16.8803396,13.0625 22.1557019,11.0833333 28,7.125 C22.1557019,2.77083333 16.8803396,0.59375 12.173913,0.59375 C5.1142732,0.59375 0,3.18997116 0,7.125 C0,11.0600288 5.1142732,13.0625 12.173913,13.0625 Z" stroke-width="1.2173913" fill="#2D51E7"></path></g></g></svg>
