<svg width="16px" height="16px" xmlns="http://www.w3.org/2000/svg"><path d="M7.9558123,1.27807675 L1.1405637,14.5957676 C0.966707294,14.9355008 0.966708997,14.9355037 1.33907042,14.9355037 L14.6616325,14.9355037 C15.0318872,14.9355037 15.0330209,14.9335959 14.8601393,14.5957676 L8.04489066,1.27807675 C7.94740694,1.08758361 7.91829677,1.06451327 8.00045152,1.06449634 C8.08250041,1.06447943 8.05325364,1.08766644 7.9558123,1.27807675 Z M7.02981595,0.785783696 C7.56582792,-0.261638373 8.43457874,-0.262217384 8.97088702,0.785783696 L15.7861356,14.1034746 C16.3221476,15.1508966 15.8151156,16 14.6616325,16 L1.33907042,16 C0.182012546,16 -0.321740933,15.1514757 0.214567348,14.1034746 L7.02981595,0.785783696 Z M7.32190618,12.806511 L7.32190618,13.8710073 L8.36629771,13.8710073 L8.36629771,12.806511 L7.32190618,12.806511 Z M7.32190618,6.41953289 L7.32190618,11.7420146 L8.36629771,11.7420146 L8.36629771,6.41953289 L7.32190618,6.41953289 Z"/></svg>