<svg width="16px" height="16px" xmlns="http://www.w3.org/2000/svg"><path d="M10.1464466,3.85691729 C9.95118446,3.66088561 9.95118446,3.34305545 10.1464466,3.14702376 C10.3417088,2.95099208 10.6582912,2.95099208 10.8535534,3.14702376 L15.8535534,8.16672906 C15.9511845,8.2647449 16,8.39321036 16,8.52167582 C16,8.65014128 15.9511845,8.77860674 15.8535534,8.87662259 L10.8967349,13.8529762 C10.7014727,14.0490079 10.3848902,14.0490079 10.1896281,13.8529762 C9.99436593,13.6569446 9.99436593,13.3391144 10.1896281,13.1430827 L14.2928932,9.02364635 L0.535714286,9.02364635 C0.239847455,9.02364635 0,8.79890649 0,8.52167582 C0,8.24444515 0.239847455,8.01970529 0.535714286,8.01970529 L14.2928932,8.01970529 L10.1464466,3.85691729 Z"/></svg>