<svg width="16px" height="16px" xmlns="http://www.w3.org/2000/svg"><path d="M5.85355339,3.85691729 C6.04881554,3.66088561 6.04881554,3.34305545 5.85355339,3.14702376 C5.65829124,2.95099208 5.34170876,2.95099208 5.14644661,3.14702376 L0.146446609,8.16672906 C0.0488155365,8.2647449 0,8.39321036 0,8.52167582 C6.9388939e-18,8.65014128 0.0488155365,8.77860674 0.146446609,8.87662259 L5.10326515,13.8529762 C5.29852729,14.0490079 5.61510978,14.0490079 5.81037193,13.8529762 C6.00563407,13.6569446 6.00563407,13.3391144 5.81037193,13.1430827 L1.70710678,9.02364635 L15.4642857,9.02364635 C15.7601525,9.02364635 16,8.79890649 16,8.52167582 C16,8.24444515 15.7601525,8.01970529 15.4642857,8.01970529 L1.70710678,8.01970529 L5.85355339,3.85691729 Z"/></svg>