<svg width="16px" height="16px" xmlns="http://www.w3.org/2000/svg"><path d="M2.85691729,5.85355339 C2.66088561,6.04881554 2.34305545,6.04881554 2.14702376,5.85355339 C1.95099208,5.65829124 1.95099208,5.34170876 2.14702376,5.14644661 L7.16672906,0.146446609 C7.2647449,0.0488155365 7.39321036,3.3023889e-16 7.52167582,3.38105131e-16 C7.65014128,3.52910266e-16 7.77860674,0.0488155365 7.87662259,0.146446609 L12.8529762,5.10326515 C13.0490079,5.29852729 13.0490079,5.61510978 12.8529762,5.81037193 C12.6569446,6.00563407 12.3391144,6.00563407 12.1430827,5.81037193 L8.02364635,1.70710678 L8.02364635,15.4642857 C8.02364635,15.7601525 7.79890649,16 7.52167582,16 C7.24444515,16 7.01970529,15.7601525 7.01970529,15.4642857 L7.01970529,1.70710678 L2.85691729,5.85355339 Z"/></svg>