<svg width="16px" height="16px" xmlns="http://www.w3.org/2000/svg"><path d="M12.1997272,15 L3.80008915,15 C3.4137058,15 3.10011931,14.6860861 3.10011931,14.2992993 L3.10011931,9.39439439 L2.40014947,9.39439439 C1.83247394,9.39439439 1.32499581,9.05525526 1.10730519,8.52972973 C0.88961457,8.0035035 1.00930941,7.4044044 1.41039213,7.0022022 L7.01085078,1.40990991 C7.27473941,1.14574575 7.62612427,1 7.99990816,1 C8.37369205,1 8.72507691,1.14574575 8.98966551,1.41061061 L14.5887242,7.0015015 C14.9905069,7.4037037 15.1102017,8.0035035 14.8932111,8.52832833 C14.6769204,9.05455455 14.1687423,9.39439439 13.5996668,9.39439439 L12.899697,9.39439439 L12.899697,14.2992993 C12.899697,14.6853854 12.5861105,15 12.1997272,15 Z M4.50005898,13.5985986 L11.4997573,13.5985986 L11.4997573,8.69369369 C11.4997573,8.30690691 11.8133438,7.99299299 12.1997272,7.99299299 L13.5996668,7.99299299 L8.00060813,2.4014014 L2.3994495,7.99299299 L3.80008915,7.99299299 C4.18647249,7.99299299 4.50005898,8.30690691 4.50005898,8.69369369 L4.50005898,13.5985986 Z"/></svg>