<svg width="16px" height="16px" xmlns="http://www.w3.org/2000/svg"><path d="M8,15 C4.1402,15 1,11.8605 1,8 C1,4.1409 4.1402,1 8,1 C11.8598,1 15,4.1402 15,8 C15,11.8605 11.8598,15 8,15 Z M8,2.4 C4.9123,2.4 2.4,4.9123 2.4,8 C2.4,11.0877 4.9123,13.6 8,13.6 C11.0877,13.6 13.6,11.0877 13.6,8 C13.6,4.9123 11.0877,2.4 8,2.4 Z M8.7,10.1 L10.1,10.1 L10.1,11.5 L5.9,11.5 L5.9,10.1 L7.3,10.1 L7.3,8 L6.6,8 L6.6,6.6 L8,6.6 C8.3871,6.6 8.7,6.9136 8.7,7.3 L8.7,10.1 Z M8.61873,4.581284 C8.9604385,4.9229925 8.9604385,5.477011 8.61873,5.818723 C8.2770215,6.1604315 7.723003,6.1604315 7.381291,5.818723 C7.0395825,5.4770145 7.0395825,4.922996 7.381291,4.581284 C7.7229995,4.2395755 8.277018,4.2395755 8.61873,4.581284 Z"/></svg>