<svg width="16px" height="16px" xmlns="http://www.w3.org/2000/svg"><path d="M12,15 L12,10 C11.9901246,9.17953506 12.0602846,8 10.5,8 C8.8828125,8 8.98185053,9.90803847 9,10 L9,15 L6,15 C6,15 6.03843416,6.82849407 6,6 L9,6 L9,7 C9.15800712,6.87302773 10.1108541,6 12,6 C13.5178826,6 15,7.28223322 15,10 L15,15 L12,15 Z M1,6 L4,6 L4,15 L1,15 L1,6 L1,6 Z M2.5,5 C3.32842712,5 4,4.32842712 4,3.5 C4,2.67157288 3.32842712,2 2.5,2 C1.67157288,2 1,2.67157288 1,3.5 C1,4.32842712 1.67157288,5 2.5,5 Z"/></svg>