<svg width="16px" height="16px" xmlns="http://www.w3.org/2000/svg"><path d="M15,15 L12,15 L12,10 C11.9901246,9.17953506 11.519306,8.35524227 10,8 C9.69208185,8.35524227 9.25169039,8.91149286 9,9 C8.96983986,9.63999627 8.98185053,9.90803847 9,10 L9,15 L6,15 C6,15 6.03843416,6.82849407 6,6 L9,6 L9,7 C9.15800712,6.87302773 10.1108541,6 12,6 C13.5178826,6 15,7.28223322 15,10 L15,15 L15,15 Z M2,5 L2,5 C1.58001988,5 1,4.3390383 1,4 C1,2.64710676 1.597167,2 3,2 C3.42147117,2 3.98210736,2.64547677 4,3 C4,4.33659332 3.42147117,5 2,5 L2,5 L2,5 Z M1,6 L4,6 L4,15 L1,15 L1,6 L1,6 Z"/></svg>