<svg height="16" width="16" xmlns="http://www.w3.org/2000/svg"><path d="m8.51139756 9.57529445c-.88909474.66789745-1.99428461 1.06367445-3.19191313 1.06367445-2.93787013 0-5.31948443-2.38161434-5.31948443-5.31948447s2.3816143-5.31948443 5.31948443-5.31948443 5.31948447 2.3816143 5.31948447 5.31948443c0 1.19762852-.395777 2.30281839-1.06367445 3.19191313l6.38315885 6.38315884c.0553956.3168716.0553956.6761277 0 1.0638969-.3877692.0553956-.7470253.0553956-1.0638969 0zm-3.19191313-.00022247c2.35029611 0 4.25558755-1.90529144 4.25558755-4.25558755 0-2.3502961-1.90529144-4.25558754-4.25558755-4.25558754-2.3502961 0-4.25558754 1.90529144-4.25558754 4.25558754 0 2.35029611 1.90529144 4.25558755 4.25558754 4.25558755z"/></svg>