<svg width="16px" height="16px" xmlns="http://www.w3.org/2000/svg"><path d="M8.40141511,15.2018961 C8.35963221,15.1456329 8.28027139,15.0374688 8.16871429,14.8833348 C7.98221665,14.6256585 7.77425947,14.3338406 7.55023031,14.0138243 C6.91016206,13.0995133 6.27013796,12.1433325 5.67341945,11.1932057 C5.35261094,10.6823974 5.0527673,10.1864639 4.77776756,9.70977192 C3.64640257,7.74863342 3,6.21925514 3,5.39130435 C3,2.97981972 5.22599226,1 8,1 C10.7735365,1 13,2.98005647 13,5.39130435 C13,6.21925514 12.3535974,7.74863342 11.2222324,9.70977192 C10.9472327,10.1864639 10.6473891,10.6823974 10.3265805,11.1932057 C9.72986204,12.1433325 9.08983794,13.0995133 8.44976969,14.0138243 C8.22574053,14.3338406 8.01778335,14.6256585 7.83128571,14.8833348 C7.71972861,15.0374688 7.64036779,15.1456329 7.59858489,15.2018961 L8.40141511,15.2018961 L8.40141511,15.2018961 L8.40141511,15.2018961 Z M7.59858489,15.7981039 C7.79849771,16.0672987 8.20150229,16.0672987 8.40141511,15.7981039 C8.44556971,15.738647 8.5273417,15.6271966 8.64137054,15.4696475 C8.83084946,15.2078521 9.04183759,14.911781 9.26898031,14.587317 C9.91797456,13.6602557 10.567013,12.6906077 11.1734195,11.7250552 C11.5005988,11.2041029 11.8068567,10.6975603 12.0884297,10.2094741 C13.3091963,8.09336441 14,6.45893385 14,5.39130435 C14,2.39994353 11.3013968,0 8,0 C4.69811428,0 2,2.39972976 2,5.39130435 C2,6.45893385 2.69080366,8.09336441 3.91157029,10.2094741 C4.19314327,10.6975603 4.49940119,11.2041029 4.82658055,11.7250552 C5.43298704,12.6906077 6.08202544,13.6602557 6.73101969,14.587317 C6.95816241,14.911781 7.16915054,15.2078521 7.35862946,15.4696475 C7.4726583,15.6271966 7.55443029,15.738647 7.59858489,15.7981039 L7.59858489,15.7981039 L7.59858489,15.7981039 Z"/></svg>