<svg width="16px" height="16px" xmlns="http://www.w3.org/2000/svg"><path d="M8,15 C4.1402,15 1,11.8605 1,8 C1,4.1409 4.1402,1 8,1 C11.8598,1 15,4.1402 15,8 C15,11.8605 11.8598,15 8,15 Z M8,2.4 C4.9123,2.4 2.4,4.9123 2.4,8 C2.4,11.0877 4.9123,13.6 8,13.6 C11.0877,13.6 13.6,11.0877 13.6,8 C13.6,4.9123 11.0877,2.4 8,2.4 Z M8.666671,10.000005 L7.333337,10.000005 L7.333337,8.000004 L8.000004,8.000004 C8.73600437,8.000004 9.333338,7.4020037 9.333338,6.66667 C9.333338,5.93066963 8.73600437,5.333336 8.000004,5.333336 C7.26400363,5.333336 6.66667,5.93066963 6.66667,6.66667 L5.333336,6.66667 C5.333336,5.19666927 6.53000326,4.000002 8.000004,4.000002 C9.47000473,4.000002 10.666672,5.19666927 10.666672,6.66667 C10.666672,7.90667062 9.81533824,8.95200448 8.666671,9.25000463 L8.666671,10.000005 Z M8.58927096,10.744072 C8.91470779,11.0695089 8.91470779,11.5971458 8.58927096,11.922586 C8.26383413,12.2480228 7.7361972,12.2480228 7.41075704,11.922586 C7.08532021,11.5971491 7.08532021,11.0695122 7.41075704,10.744072 C7.73619387,10.4186352 8.2638308,10.4186352 8.58927096,10.744072 Z"/></svg>