<svg width="16px" height="16px" xmlns="http://www.w3.org/2000/svg"><path d="M7.07773386,11.5579515 C7.09178751,10.7097891 7.20421502,10.0269568 7.41501976,9.50943396 C7.62582451,8.99191116 8.07904791,8.38275283 8.77470356,7.6819407 C9.47035921,6.98112857 9.91831257,6.48517666 10.1185771,6.19407008 C10.3188416,5.9029635 10.4734294,5.58311046 10.5823452,5.23450135 C10.691261,4.88589224 10.7457181,4.48877132 10.7457181,4.04312668 C10.7457181,3.1446496 10.5120796,2.4384572 10.0447958,1.9245283 C9.57751194,1.41059941 8.92578372,1.15363881 8.08959157,1.15363881 C7.2463726,1.15363881 6.5665375,1.39981784 6.05006588,1.89218329 C5.53359426,2.38454873 5.2683356,3.05120873 5.25428195,3.89218329 L4,3.89218329 C4.01405365,2.71338135 4.40403657,1.76999456 5.16996047,1.06199461 C5.93588437,0.353994663 6.90908501,0 8.08959157,0 C9.29820543,0 10.2520826,0.361182372 10.9512516,1.08355795 C11.6504207,1.80593353 12,2.78525887 12,4.02156334 C12,4.79784755 11.8278454,5.52560307 11.483531,6.20485175 C11.1392165,6.88410043 10.4857316,7.67654534 9.52305665,8.58221024 C8.72902545,9.26505283 8.33201581,10.2569567 8.33201581,11.5579515 L7.07773386,11.5579515 Z M6.90909091,15.1590296 C6.90909091,14.9146439 6.98462814,14.7079973 7.13570487,14.5390836 C7.28678161,14.3701699 7.49933987,14.2857143 7.77338603,14.2857143 C8.04040538,14.2857143 8.25296364,14.3701699 8.41106719,14.5390836 C8.56917075,14.7079973 8.64822134,14.9146439 8.64822134,15.1590296 C8.64822134,15.3962276 8.56917075,15.5956865 8.41106719,15.7574124 C8.25296364,15.9191383 8.04040538,16 7.77338603,16 C7.49933987,16 7.28678161,15.9191383 7.13570487,15.7574124 C6.98462814,15.5956865 6.90909091,15.3962276 6.90909091,15.1590296 Z"/></svg>