<svg width="16px" height="16px" xmlns="http://www.w3.org/2000/svg"><path d="M3.83333333,7.00000002 C2.19690377,7.00000002 0.999999998,8.24280099 0.999999998,9.99999983 C0.999999998,11.7571988 2.19690386,13 3.83333333,13 L6.49999999,13 C6.77614236,13 6.99999999,13.2238576 6.99999999,13.5 C6.99999999,13.7761424 6.77614236,14 6.49999999,14 L3.83333333,14 C1.63602443,14 0,12.3012393 0,9.99999983 C0,7.69876038 1.63602438,6.00000002 3.83333333,6.00000002 L14.3207311,6.00000002 L11.1480075,2.85510748 C10.9518871,2.66070741 10.9504925,2.344128 11.1448925,2.14800757 C11.3392926,1.95188713 11.655872,1.95049251 11.8519924,2.14489257 L15.8519924,6.1098047 C16.0481182,6.30421006 16.0495068,6.62079999 15.8550939,6.81691828 L11.8550939,10.8520061 C11.6606863,11.0481191 11.3441068,11.0495015 11.1479939,10.8550939 C10.9518809,10.6606863 10.9504985,10.3441068 11.1449061,10.1479939 L14.265526,7.00000002 L3.83333333,7.00000002 Z"/></svg>