<svg width="16px" height="16px" xmlns="http://www.w3.org/2000/svg"><path d="M12.666673,5.99933633 C11.7986726,5.99933633 11.0660055,5.44066939 10.7900054,4.66600233 L1.333334,4.66600233 L1.333334,3.33266833 L10.7900054,3.33266833 C11.0660055,2.55800128 11.7986726,1.99933433 12.666673,1.99933433 C13.7693402,1.99933433 14.666674,2.89666812 14.666674,3.99933533 C14.666674,5.10200255 13.7693402,5.99933633 12.666673,5.99933633 Z M12.666673,3.33266833 C12.2993395,3.33266833 12.000006,3.63200182 12.000006,3.99933533 C12.000006,4.36800218 12.2993395,4.66600233 12.666673,4.66600233 C13.0340065,4.66600233 13.33334,4.36800218 13.33334,3.99933533 C13.33334,3.63200182 13.0340065,3.33266833 12.666673,3.33266833 Z M6.000003,5.99933633 C6.86800343,5.99933633 7.60067047,6.55800328 7.87667061,7.33267033 L14.666674,7.33267033 L14.666674,8.66600433 L7.87667061,8.66600433 C7.60067047,9.44067139 6.86733677,9.99933833 6.000003,9.99933833 C5.13266923,9.99933833 4.39933553,9.44067139 4.1233354,8.66600433 L1.333334,8.66600433 L1.333334,7.33267033 L4.1233354,7.33267033 C4.39933553,6.55800328 5.13200257,5.99933633 6.000003,5.99933633 Z M6.000003,8.66600433 C6.36733652,8.66600433 6.66667,8.36800418 6.66667,7.99933733 C6.66667,7.63200382 6.36733652,7.33267033 6.000003,7.33267033 C5.63266948,7.33267033 5.333336,7.63200382 5.333336,7.99933733 C5.333336,8.36800418 5.63266948,8.66600433 6.000003,8.66600433 Z M12.666673,9.99933833 C13.7693402,9.99933833 14.666674,10.8966721 14.666674,11.9993393 C14.666674,13.1020066 13.7693402,13.9993403 12.666673,13.9993403 C11.7993392,13.9993403 11.0660055,13.4406734 10.7900054,12.6660063 L1.333334,12.6660063 L1.333334,11.3326723 L10.7900054,11.3326723 C11.0660055,10.5580053 11.7986726,9.99933833 12.666673,9.99933833 Z M12.666673,12.6660063 C13.0340065,12.6660063 13.33334,12.3680062 13.33334,11.9993393 C13.33334,11.6320058 13.0340065,11.3326723 12.666673,11.3326723 C12.2993395,11.3326723 12.000006,11.6320058 12.000006,11.9993393 C12.000006,12.3680062 12.2993395,12.6660063 12.666673,12.6660063 Z"/></svg>