<svg width="16px" height="16px" xmlns="http://www.w3.org/2000/svg"><path d="M15.585592,2.24001476 C14.9910018,2.6160691 14.3323823,2.88920145 13.6314057,3.03641675 C13.0700099,2.39858132 12.2702184,2 11.3851092,2 C9.68550422,2 8.30758258,3.46940291 8.30758258,5.28180108 C8.30758258,5.53901826 8.33485131,5.78950661 8.38730386,6.02969691 C5.82963898,5.89283817 3.56205421,4.58627317 2.04422254,2.60073905 C1.77932624,3.0854495 1.62756502,3.64920919 1.62756502,4.25065038 C1.62756502,5.38922846 2.17090969,6.39375636 2.99665313,6.98226647 C2.49215406,6.96523958 2.01766707,6.81761471 1.60271041,6.57180729 C1.60249095,6.58549901 1.60249095,6.59924925 1.60249095,6.613058 C1.60249095,8.20317043 2.66328322,9.5296294 4.07110721,9.83108139 C3.81284977,9.90609331 3.5409854,9.94617379 3.2602875,9.94617379 C3.06199934,9.94617379 2.86919785,9.9256362 2.68133435,9.88731107 C3.07291781,11.1911845 4.20942609,12.1400094 5.55607374,12.1665151 C4.50285306,13.0467058 3.17590256,13.5713797 1.7341161,13.5713797 C1.48573466,13.5713797 1.24075497,13.5558741 1,13.5255651 C2.36190058,14.4567194 3.97953473,15 5.71743662,15 C11.3779217,15 14.4732799,9.99918534 14.4732799,5.66236081 C14.4732799,5.52006049 14.4703172,5.37852083 14.4643915,5.23780032 C15.0656206,4.77509024 15.5874026,4.19705371 16,3.53891474 C15.4480961,3.79993519 14.59375,4 14.2324701,4.05568958 C14.59375,3.5389148 15.3558104,3.00634176 15.585592,2.24001476 Z"/></svg>