<?xml version="1.0" encoding="UTF-8"?>
<svg width="126px" height="20px" viewBox="0 0 126 20" version="1.1" xmlns="http://www.w3.org/2000/svg" xmlns:xlink="http://www.w3.org/1999/xlink">
    <!-- Generator: Sketch 48.2 (47327) - http://www.bohemiancoding.com/sketch -->
    <title>logos/Logo_CARTO_product</title>
    <desc>Created with Sketch.</desc>
    <defs></defs>
    <g id="Symbols" stroke="none" stroke-width="1" fill="none" fill-rule="evenodd">
        <g id="logos/Logo_CARTO_product" fill-rule="nonzero">
            <g id="Logo_CARTO_product">
                <path d="M51.6279,19.1162 C56.6659,19.1162 60.7499,15.0312 60.7499,9.9932 C60.7499,4.9562 56.6659,0.8722 51.6279,0.8722 C46.5899,0.8722 42.5059,4.9562 42.5059,9.9932 C42.5059,15.0312 46.5899,19.1162 51.6279,19.1162" id="Fill-3" fill-opacity="0.2" fill="#E4E5E8"></path>
                <path d="M16.9277,13.1211 C18.2167,13.1211 18.9607,12.5461 19.5127,11.7671 L18.2917,10.8741 C17.9417,11.3121 17.5797,11.6021 16.9697,11.6021 C16.1507,11.6021 15.5737,10.9001 15.5737,10.0001 L15.5737,9.9831 C15.5737,9.1091 16.1507,8.3891 16.9697,8.3891 C17.5307,8.3891 17.9147,8.6721 18.2487,9.0921 L19.4707,8.1231 C18.9537,7.3941 18.1827,6.8811 16.9867,6.8811 C15.2127,6.8811 13.9067,8.2521 13.9067,10.0001 L13.9067,10.0171 C13.9067,11.8091 15.2537,13.1211 16.9277,13.1211 Z M22.2977,13.0001 L23.9947,13.0001 L24.4127,11.9201 L26.6827,11.9201 L27.0997,13.0001 L28.8407,13.0001 L26.3487,7.0001 L24.7817,7.0001 L22.2977,13.0001 Z M24.8907,10.6261 L25.5537,8.9301 L26.2047,10.6261 L24.8907,10.6261 Z M31.9997,13.0001 L33.6237,13.0001 L33.6237,11.1841 L34.3437,11.1841 L35.5247,13.0001 L37.3897,13.0001 L35.9907,10.9091 C36.7197,10.5921 37.1967,9.9831 37.1967,9.0581 L37.1967,9.0401 C37.1967,8.4501 37.0207,7.9961 36.6787,7.6431 C36.2857,7.2411 35.6657,7.0001 34.7697,7.0001 L31.9997,7.0001 L31.9997,13.0001 Z M33.6237,9.8811 L33.6237,8.4321 L34.6957,8.4321 C35.2297,8.4321 35.5737,8.6721 35.5737,9.1521 L35.5737,9.1691 C35.5737,9.6061 35.2487,9.8811 34.7017,9.8811 L33.6237,9.8811 Z M41.9997,13.0001 L43.6207,13.0001 L43.6207,8.4571 L45.3807,8.4571 L45.3807,7.0001 L40.2507,7.0001 L40.2507,8.4571 L41.9997,8.4571 L41.9997,13.0001 Z M51.6277,13.1111 C53.3487,13.1111 54.7437,11.7161 54.7437,9.9931 C54.7437,8.2721 53.3487,6.8771 51.6277,6.8771 C49.9067,6.8771 48.5107,8.2721 48.5107,9.9931 C48.5107,11.7161 49.9067,13.1111 51.6277,13.1111 Z" id="Fill-5" fill="#E4E5E8"></path>
                <path d="M4.4238,10.7881 L3.0548,7.7251 L1.6778,10.7881 L4.4238,10.7881 Z M2.7448,7.0001 L3.3818,7.0001 L6.1278,13.0001 L5.3968,13.0001 L4.6908,11.4081 L1.4118,11.4081 L0.6968,13.0001 L-0.0002,13.0001 L2.7448,7.0001 Z" id="Fill-7" fill="#9397A2"></path>
                <path d="M71.1689,10.2549 C72.1679,10.2549 72.8209,9.7219 72.8209,8.9299 L72.8209,8.9359 C72.8209,8.0749 72.1759,7.6279 71.2029,7.6279 L69.6799,7.6279 L69.6799,10.2549 L71.1689,10.2549 Z M68.9999,6.9999 L71.2549,6.9999 C72.6139,6.9999 73.5099,7.7219 73.5099,8.9099 L73.5099,8.9039 C73.5099,10.2029 72.4259,10.8739 71.1439,10.8739 L69.6799,10.8739 L69.6799,12.9999 L68.9999,12.9999 L68.9999,6.9999 Z" id="Fill-10" fill="#9397A2"></path>
                <path d="M79.5303,10.0479 C80.4333,10.0479 81.0793,9.5839 81.0793,8.8089 L81.0793,8.8159 C81.0793,8.0749 80.5103,7.6279 79.5383,7.6279 L77.6793,7.6279 L77.6793,10.0479 L79.5303,10.0479 Z M77.0003,6.9999 L79.5903,6.9999 C80.3303,6.9999 80.9253,7.2239 81.3023,7.6019 C81.5953,7.8949 81.7663,8.3169 81.7663,8.7899 L81.7663,8.7829 C81.7663,9.7809 81.0793,10.3669 80.1323,10.5389 L81.9823,12.9999 L81.1483,12.9999 L79.4013,10.6589 L77.6793,10.6589 L77.6793,12.9999 L77.0003,12.9999 L77.0003,6.9999 Z" id="Fill-12" fill="#9397A2"></path>
                <path d="M90.4932,10.0059 L90.4932,9.9879 C90.4932,8.6199 89.4952,7.5009 88.1182,7.5009 C86.7412,7.5009 85.7602,8.6029 85.7602,9.9709 L85.7602,9.9879 C85.7602,11.3569 86.7572,12.4759 88.1342,12.4759 C89.5112,12.4759 90.4932,11.3739 90.4932,10.0059 M85.0542,10.0059 L85.0542,9.9879 C85.0542,8.3269 86.3022,6.8719 88.1342,6.8719 C89.9682,6.8719 91.1982,8.3099 91.1982,9.9709 L91.1982,9.9879 C91.1982,11.6499 89.9502,13.1039 88.1182,13.1039 C86.2852,13.1039 85.0542,11.6659 85.0542,10.0059" id="Fill-14" fill="#9397A2"></path>
                <path d="M95.6797,7.6162 L95.6797,12.3722 L97.0917,12.3722 C98.6147,12.3722 99.5867,11.3392 99.5867,10.0062 L99.5867,10.0002 C99.5867,8.6662 98.6147,7.6162 97.0917,7.6162 L95.6797,7.6162 Z M94.9997,6.9882 L97.0917,6.9882 C98.9847,6.9882 100.2917,8.2872 100.2917,9.9822 L100.2917,9.9882 C100.2917,11.6832 98.9847,13.0002 97.0917,13.0002 L94.9997,13.0002 L94.9997,6.9882 Z" id="Fill-16" fill="#9397A2"></path>
                <path d="M103.999,10.4785 L103.999,6.9995 L104.679,6.9995 L104.679,10.4355 C104.679,11.7355 105.376,12.4665 106.52,12.4665 C107.631,12.4665 108.337,11.7955 108.337,10.4785 L108.337,6.9995 L109.017,6.9995 L109.017,10.4265 C109.017,12.1825 108.009,13.0945 106.503,13.0945 C105.015,13.0945 103.999,12.1825 103.999,10.4785" id="Fill-18" fill="#9397A2"></path>
                <path d="M112.7236,10.0059 L112.7236,9.9879 C112.7236,8.2839 113.9966,6.8719 115.7706,6.8719 C116.8646,6.8719 117.5176,7.2599 118.1196,7.8279 L117.6556,8.3269 C117.1476,7.8449 116.5786,7.5009 115.7626,7.5009 C114.4276,7.5009 113.4306,8.5849 113.4306,9.9709 L113.4306,9.9879 C113.4306,11.3829 114.4366,12.4759 115.7626,12.4759 C116.5886,12.4759 117.1296,12.1569 117.7056,11.6069 L118.1546,12.0449 C117.5266,12.6819 116.8376,13.1039 115.7446,13.1039 C114.0066,13.1039 112.7236,11.7349 112.7236,10.0059" id="Fill-20" fill="#9397A2"></path>
                <polygon id="Fill-22" fill="#9397A2" points="123 7.6279 120.978 7.6279 120.978 6.9999 125.71 6.9999 125.71 7.6279 123.687 7.6279 123.687 12.9999 123 12.9999"></polygon>
            </g>
        </g>
    </g>
</svg>