<?xml version="1.0" encoding="UTF-8"?>
<svg width="280px" height="66px" viewBox="0 0 280 66" version="1.1" xmlns="http://www.w3.org/2000/svg" xmlns:xlink="http://www.w3.org/1999/xlink">
    <!-- Generator: Sketch 48.2 (47327) - http://www.bohemiancoding.com/sketch -->
    <title>logos/reveal-logo</title>
    <desc>Created with Sketch.</desc>
    <defs>
        <linearGradient x1="100%" y1="50%" x2="0%" y2="50%" id="linearGradient-1">
            <stop stop-color="#004D99" offset="0%"></stop>
            <stop stop-color="#0066CC" offset="100%"></stop>
        </linearGradient>
    </defs>
    <g id="Symbols" stroke="none" stroke-width="1" fill="none" fill-rule="evenodd">
        <g id="logos/reveal-logo">
            <path d="M6.59032689,62.2358771 C6.39414874,62.54906 6.03142894,62.8424169 5.50215664,63.1159564 C4.97288433,63.3894959 4.30568426,63.5262636 3.50053642,63.5262636 C2.47468816,63.5262636 1.63481304,63.1833533 0.980885863,62.4975223 C0.326958685,61.8116913 0,60.9236923 0,59.8334985 L0,58.2457879 C0,57.1754159 0.316741226,56.3032739 0.950233179,55.629336 C1.58372513,54.955398 2.40316534,54.6184341 3.40857837,54.6184341 C4.377208,54.6184341 5.14658266,54.8662017 5.71672542,55.3617443 C6.28686818,55.8572869 6.56376131,56.4876077 6.54741313,57.2527255 L6.52902152,57.2884044 L5.85466249,57.2884044 C5.85466249,56.6897889 5.64213935,56.1962358 5.21708668,55.8077304 C4.79203402,55.419225 4.18920394,55.2249752 3.40857837,55.2249752 C2.60751758,55.2249752 1.96177418,55.5064392 1.47132879,56.0693756 C0.98088341,56.632312 0.735664397,57.3538113 0.735664397,58.2338949 L0.735664397,59.8334985 C0.735664397,60.7373682 0.991100869,61.4786889 1.50198148,62.0574827 C2.01286208,62.6362764 2.6790404,62.925669 3.50053642,62.925669 C4.12585429,62.925669 4.63672723,62.8344905 5.03317058,62.6521308 C5.42961393,62.4697711 5.70548532,62.2576821 5.86079303,62.0158573 L5.86079303,59.7978196 L3.45762267,59.7978196 L3.45762267,59.1912785 L6.59032689,59.1912785 L6.59032689,62.2358771 Z M11.2372737,63.5262636 C10.3789942,63.5262636 9.68216355,63.2319157 9.14676067,62.6432111 C8.61135779,62.0545065 8.34366037,61.2983198 8.34366037,60.3746283 L8.34366037,60.0475719 C8.34366037,59.1199161 8.61442303,58.3548098 9.15595647,57.7522299 C9.69748992,57.1496501 10.368777,56.8483647 11.1698378,56.8483647 C11.9749856,56.8483647 12.5972288,57.0991055 13.0365862,57.6005946 C13.4759435,58.1020838 13.6956189,58.7770027 13.6956189,59.6253717 L13.6956189,60.1783944 L9.07932477,60.1783944 L9.07932477,60.3746283 C9.07932477,61.1080314 9.27039125,61.7165486 9.65252994,62.2001982 C10.0346686,62.6838478 10.5629113,62.925669 11.2372737,62.925669 C11.6418911,62.925669 12.0138066,62.8612494 12.3530313,62.7324083 C12.6922561,62.6035672 12.9742579,62.4301299 13.1990454,62.2120912 L13.5117028,62.6997027 C13.2787412,62.9375631 12.9732392,63.1347861 12.5951875,63.2913776 C12.2171359,63.4479691 11.7645025,63.5262636 11.2372737,63.5262636 Z M11.1698378,57.4549058 C10.6058256,57.4549058 10.1419529,57.6511378 9.77820594,58.0436075 C9.41445895,58.4360773 9.2019358,58.9335946 9.14063013,59.5361744 L9.15902174,59.5718533 L12.9599545,59.5718533 L12.9599545,59.4231913 C12.9599545,58.8523262 12.8056708,58.3815678 12.4970989,58.0109019 C12.1885271,57.640236 11.7461111,57.4549058 11.1698378,57.4549058 Z M14.7684628,60.0891972 C14.7684628,59.1417197 15.0361602,58.3647206 15.5715631,57.7581764 C16.1069659,57.1516322 16.8160576,56.8483647 17.6988593,56.8483647 C18.585748,56.8483647 19.2968832,57.1516322 19.832286,57.7581764 C20.3676889,58.3647206 20.6353863,59.1417197 20.6353863,60.0891972 L20.6353863,60.2854311 C20.6353863,61.2368729 20.3687107,62.0148632 19.8353513,62.6194252 C19.3019919,63.2239872 18.593922,63.5262636 17.7111204,63.5262636 C16.8201446,63.5262636 16.1069659,63.2239872 15.5715631,62.6194252 C15.0361602,62.0148632 14.7684628,61.2368729 14.7684628,60.2854311 L14.7684628,60.0891972 Z M15.5041272,60.2854311 C15.5041272,61.0307272 15.6982589,61.6570837 16.0865281,62.1645193 C16.4747974,62.671955 17.0163227,62.925669 17.7111204,62.925669 C18.3936568,62.925669 18.9300734,62.671955 19.3203862,62.1645193 C19.710699,61.6570837 19.9058525,61.0307272 19.9058525,60.2854311 L19.9058525,60.0891972 C19.9058525,59.3557942 19.7096773,58.733402 19.317321,58.222002 C18.9249646,57.710602 18.3854828,57.4549058 17.6988593,57.4549058 C17.0122357,57.4549058 16.4747974,57.710602 16.0865281,58.222002 C15.6982589,58.733402 15.5041272,59.3557942 15.5041272,60.0891972 L15.5041272,60.2854311 Z M22.7933352,56.9672944 L22.8607711,58.0257681 C23.0732975,57.65312 23.3563211,57.3637275 23.7098505,57.1575818 C24.0633798,56.951436 24.4833174,56.8483647 24.9696757,56.8483647 C25.4764693,56.8483647 25.8994721,56.9663021 26.2386968,57.2021804 C26.5779215,57.4380587 26.8210971,57.7978172 26.9682307,58.2814668 C27.1684959,57.8334963 27.453563,57.4826574 27.8234405,57.2289395 C28.1933181,56.9752217 28.6398211,56.8483647 29.1629628,56.8483647 C29.8700216,56.8483647 30.4166556,57.0763109 30.8028814,57.5322101 C31.1891071,57.9881093 31.3822171,58.6937514 31.3822171,59.6491576 L31.3822171,63.4013875 L30.6465527,63.4013875 L30.6465527,59.6372646 C30.6465527,58.8443964 30.5014648,58.2844417 30.2112846,57.9573835 C29.9211044,57.6303254 29.52058,57.4667988 29.0096994,57.4667988 C28.4497742,57.4667988 28.016554,57.6323076 27.7100256,57.96333 C27.4034973,58.2943525 27.2093655,58.7215038 27.1276246,59.2447968 C27.1276246,59.2884046 27.1286464,59.3320117 27.1306899,59.3756194 C27.1327334,59.4192272 27.1337552,59.4747271 27.1337552,59.5421209 L27.1337552,63.4013875 L26.3919602,63.4013875 L26.3919602,59.6372646 C26.3919602,58.8602538 26.2458506,58.3042633 25.9536269,57.9692765 C25.6614032,57.6342897 25.259857,57.4667988 24.7489764,57.4667988 C24.2340088,57.4667988 23.8242887,57.5926647 23.5198038,57.8444004 C23.215319,58.096136 23.0017741,58.4360732 22.8791627,58.864222 L22.8791627,63.4013875 L22.1434983,63.4013875 L22.1434983,56.9672944 L22.7933352,56.9672944 Z M37.4943621,63.4013875 C37.4494046,63.1754201 37.415687,62.9811703 37.3932082,62.8186323 C37.3707295,62.6560943 37.3594903,62.4895945 37.3594903,62.3191278 C37.1306158,62.6679899 36.8097876,62.9563913 36.396996,63.1843409 C35.9842045,63.4122905 35.5101144,63.5262636 34.9747115,63.5262636 C34.3248714,63.5262636 33.8211507,63.3587727 33.4635343,63.0237859 C33.1059178,62.6887991 32.9271123,62.2338978 32.9271123,61.6590684 C32.9271123,61.0842389 33.1866358,60.6184359 33.7056905,60.2616452 C34.2247451,59.9048545 34.8990974,59.7264618 35.7287675,59.7264618 L37.3594903,59.7264618 L37.3594903,58.9296333 C37.3594903,58.4697698 37.2092936,58.1090201 36.9088958,57.8473736 C36.608498,57.5857271 36.1844735,57.4549058 35.6368095,57.4549058 C35.134103,57.4549058 34.7284699,57.5738343 34.419898,57.8116947 C34.1113261,58.0495552 33.9570425,58.3488585 33.9570425,58.7096135 L33.2765529,58.7096135 L33.2642918,58.6739346 C33.2397695,58.190285 33.4533144,57.7651158 33.9049329,57.3984143 C34.3565513,57.0317127 34.9460987,56.8483647 35.6735927,56.8483647 C36.4010867,56.8483647 36.9855253,57.0287395 37.4269262,57.3894945 C37.868327,57.7502496 38.0890241,58.2675883 38.0890241,58.9415263 L38.0890241,62.1050545 C38.0890241,62.3310219 38.1023068,62.5510396 38.1288726,62.765114 C38.1554384,62.9791884 38.1993735,63.1912774 38.2606792,63.4013875 L37.4943621,63.4013875 Z M35.0544085,62.8959366 C35.6184207,62.8959366 36.1068152,62.7661064 36.5196068,62.506442 C36.9323983,62.2467777 37.2123567,61.912787 37.3594903,61.5044599 L37.3594903,60.2735382 L35.722637,60.2735382 C35.1259285,60.2735382 34.6334469,60.4112969 34.2451777,60.6868186 C33.8569084,60.9623403 33.6627767,61.2943489 33.6627767,61.6828543 C33.6627767,62.0475737 33.7864079,62.3409305 34.0336742,62.5629336 C34.2809404,62.7849367 34.6211818,62.8959366 35.0544085,62.8959366 Z M43.0731504,57.579782 L42.5520548,57.5441031 C42.0902188,57.5441031 41.711151,57.669969 41.4148403,57.9217047 C41.1185295,58.1734403 40.9070281,58.5193239 40.7803297,58.9593657 L40.7803297,63.4013875 L40.0446653,63.4013875 L40.0446653,56.9672944 L40.6883717,56.9672944 L40.7803297,58.0376611 L40.7803297,58.1090188 C40.9724208,57.7125847 41.2299008,57.4033708 41.5527774,57.1813677 C41.8756539,56.9593646 42.2598304,56.8483647 42.7053182,56.8483647 C42.7952332,56.8483647 42.8810599,56.8553022 42.9628008,56.8691774 C43.0445417,56.8830526 43.1119769,56.8979187 43.1651085,56.913776 L43.0731504,57.579782 Z M45.844153,60.2675917 L45.0717054,60.2675917 L45.0717054,63.4013875 L44.336041,63.4013875 L44.336041,54.1248761 L45.0717054,54.1248761 L45.0717054,59.6551041 L45.7705866,59.6551041 L48.3147593,56.9672944 L49.1730344,56.9672944 L49.1852955,56.9970268 L46.4633372,59.9167493 L49.4059948,63.3716551 L49.3876032,63.4013875 L48.5477197,63.4013875 L45.844153,60.2675917 Z M52.8942701,63.5262636 C52.0359907,63.5262636 51.33916,63.2319157 50.8037571,62.6432111 C50.2683543,62.0545065 50.0006568,61.2983198 50.0006568,60.3746283 L50.0006568,60.0475719 C50.0006568,59.1199161 50.2714195,58.3548098 50.8129529,57.7522299 C51.3544864,57.1496501 52.0257734,56.8483647 52.8268342,56.8483647 C53.6319821,56.8483647 54.2542253,57.0991055 54.6935826,57.6005946 C55.13294,58.1020838 55.3526153,58.7770027 55.3526153,59.6253717 L55.3526153,60.1783944 L50.7363212,60.1783944 L50.7363212,60.3746283 C50.7363212,61.1080314 50.9273877,61.7165486 51.3095264,62.2001982 C51.6916651,62.6838478 52.2199077,62.925669 52.8942701,62.925669 C53.2988876,62.925669 53.6708031,62.8612494 54.0100278,62.7324083 C54.3492525,62.6035672 54.6312544,62.4301299 54.8560419,62.2120912 L55.1686992,62.6997027 C54.9357377,62.9375631 54.6302357,63.1347861 54.252184,63.2913776 C53.8741324,63.4479691 53.4214989,63.5262636 52.8942701,63.5262636 Z M52.8268342,57.4549058 C52.262822,57.4549058 51.7989494,57.6511378 51.4352024,58.0436075 C51.0714554,58.4360773 50.8589323,58.9335946 50.7976266,59.5361744 L50.8160182,59.5718533 L54.6169509,59.5718533 L54.6169509,59.4231913 C54.6169509,58.8523262 54.4626673,58.3815678 54.1540954,58.0109019 C53.8455235,57.640236 53.4031076,57.4549058 52.8268342,57.4549058 Z M57.9826155,55.3201189 L57.9826155,56.9672944 L59.4416833,56.9672944 L59.4416833,57.5500496 L57.9826155,57.5500496 L57.9826155,61.7423191 C57.9826155,62.1625393 58.06129,62.4608514 58.2186412,62.6372646 C58.3759924,62.8136778 58.5854503,62.9018831 58.8470212,62.9018831 C58.9369362,62.9018831 59.0237846,62.8969277 59.107569,62.8870168 C59.1913534,62.877106 59.2904628,62.8602578 59.4049001,62.8364718 L59.5152497,63.3657086 C59.4171606,63.4132807 59.2955729,63.4519325 59.1504828,63.481665 C59.0053927,63.5113976 58.8613265,63.5262636 58.7182799,63.5262636 C58.2523568,63.5262636 57.889637,63.3835495 57.6301097,63.0981169 C57.3705823,62.8126844 57.2408206,62.3607563 57.2408206,61.7423191 L57.2408206,57.5500496 L56.0944103,57.5500496 L56.0944103,56.9672944 L57.2408206,56.9672944 L57.2408206,55.3201189 L57.9826155,55.3201189 Z M61.6977208,63.4013875 L60.9681869,63.4013875 L60.9681869,56.9672944 L61.6977208,56.9672944 L61.6977208,63.4013875 Z M61.6977208,55.123885 L60.9681869,55.123885 L60.9681869,54.1248761 L61.6977208,54.1248761 L61.6977208,55.123885 Z M64.3767653,56.9672944 L64.4442012,58.0852329 C64.6608145,57.6927632 64.9489469,57.3885045 65.3086068,57.172448 C65.6682668,56.9563914 66.0953566,56.8483647 66.589889,56.8483647 C67.3092089,56.8483647 67.8568647,57.0614448 68.2328728,57.4876115 C68.6088809,57.9137781 68.7968822,58.5787864 68.7968822,59.4826561 L68.7968822,63.4013875 L68.0612178,63.4013875 L68.0612178,59.4886026 C68.0612178,58.7512352 67.9191951,58.2299322 67.6351455,57.9246779 C67.3510959,57.6194236 66.9475062,57.4667988 66.4243645,57.4667988 C65.9012228,57.4667988 65.4792417,57.5916737 65.1584087,57.8414272 C64.8375757,58.0911806 64.6056393,58.4261624 64.4625928,58.8463826 L64.4625928,63.4013875 L63.7269284,63.4013875 L63.7269284,56.9672944 L64.3767653,56.9672944 Z M70.4521271,60.2378593 C70.4521271,59.211095 70.6758894,58.3894976 71.1234208,57.7730426 C71.5709523,57.1565876 72.195239,56.8483647 72.9962998,56.8483647 C73.4663099,56.8483647 73.8750083,56.9464807 74.2224071,57.1427156 C74.5698059,57.3389504 74.8558948,57.6174412 75.0806822,57.9781962 L75.1849014,56.9672944 L75.7795634,56.9672944 L75.7795634,63.4370664 C75.7795634,64.257685 75.5466054,64.8899879 75.0806822,65.3339941 C74.6147591,65.7780002 73.9547113,66 73.1005189,66 C72.7817294,66 72.441488,65.9623393 72.0797846,65.8870168 C71.7180811,65.8116944 71.4023616,65.7086231 71.1326166,65.5777998 L71.273619,64.9772052 C71.5392769,65.1040641 71.8223005,65.2001979 72.1226983,65.2656095 C72.4230961,65.3310211 72.7449461,65.3637265 73.0882578,65.3637265 C73.742185,65.3637265 74.2305795,65.2011909 74.5534561,64.876115 C74.8763326,64.551039 75.0377685,64.071361 75.0377685,63.4370664 L75.0377685,62.5272547 C74.812981,62.8483663 74.5279139,63.0951428 74.1825586,63.2675917 C73.8372033,63.4400405 73.4377007,63.5262636 72.9840387,63.5262636 C72.191152,63.5262636 71.5709523,63.2388532 71.1234208,62.6640238 C70.6758894,62.0891944 70.4521271,61.3221059 70.4521271,60.3627354 L70.4521271,60.2378593 Z M71.1877915,60.3627354 C71.1877915,61.1397462 71.3492273,61.7581741 71.6721039,62.2180377 C71.9949804,62.6779012 72.479288,62.9078295 73.1250411,62.9078295 C73.5909642,62.9078295 73.9822928,62.8057493 74.2990388,62.6015857 C74.6157848,62.3974222 74.8620256,62.1169493 75.0377685,61.7601586 L75.0377685,58.691774 C74.8701996,58.331019 74.6321329,58.0366711 74.323561,57.8087215 C74.0149891,57.5807719 73.6195734,57.4667988 73.1373021,57.4667988 C72.491549,57.4667988 72.005198,57.7244771 71.6782344,58.2398414 C71.3512708,58.7552057 71.1877915,59.421205 71.1877915,60.2378593 L71.1877915,60.3627354 Z M82.1675826,58.6739346 C81.836532,58.2775005 81.591313,57.9157598 81.4319182,57.5887017 C81.2725235,57.2616436 81.1928273,56.9256707 81.1928273,56.580773 C81.1928273,55.9544072 81.374698,55.4707648 81.738445,55.1298315 C82.102192,54.7888982 82.600804,54.6184341 83.234296,54.6184341 C83.8228304,54.6184341 84.2897683,54.7789875 84.6351236,55.1000991 C84.9804789,55.4212107 85.1531539,55.8255674 85.1531539,56.3131814 C85.1531539,56.6699721 85.0611968,56.9772039 84.8772798,57.234886 C84.6933628,57.4925682 84.4277088,57.7502465 84.08031,58.0079286 L83.1055547,58.7333994 L85.6313358,61.5936571 C85.831601,61.3121889 85.9869064,60.9970285 86.0972566,60.6481665 C86.2076068,60.2993045 86.2627811,59.926662 86.2627811,59.5302279 L86.9371401,59.5302279 C86.9371401,60.0376636 86.8625527,60.5044577 86.7133755,60.9306244 C86.5641984,61.356791 86.34861,61.7423174 86.0666039,62.0872151 L87.2007532,63.3716551 L87.1884921,63.4013875 L86.3486086,63.4013875 L85.6006831,62.5629336 C85.2532843,62.8721522 84.8731948,63.1100091 84.4604033,63.2765114 C84.0476118,63.4430137 83.6021306,63.5262636 83.1239463,63.5262636 C82.2697539,63.5262636 81.5933582,63.3141746 81.0947387,62.8899901 C80.5961192,62.4658056 80.3468132,61.9008955 80.3468132,61.1952428 C80.3468132,60.7195219 80.4949664,60.2903884 80.7912771,59.9078295 C81.0875879,59.5252706 81.5156994,59.13578 82.0756245,58.7393459 L82.1675826,58.6739346 Z M83.1239463,62.925669 C83.4999544,62.925669 83.8667612,62.8543119 84.2243776,62.7115956 C84.5819941,62.5688794 84.903844,62.3647189 85.1899372,62.099108 L82.651895,59.2329039 L82.5997854,59.1823588 C82.5854808,59.1684836 82.5742416,59.1536175 82.5660675,59.1377602 L82.2779323,59.3518335 C81.8038351,59.7244815 81.4860721,60.0614455 81.3246338,60.3627354 C81.1631955,60.6640253 81.0824776,60.941525 81.0824776,61.1952428 C81.0824776,61.6868211 81.2571962,62.0981153 81.6066385,62.4291378 C81.9560808,62.7601602 82.461845,62.925669 83.1239463,62.925669 Z M81.9284917,56.5688801 C81.9284917,56.8305266 81.9928617,57.1020799 82.1216036,57.3835481 C82.2503455,57.6650163 82.4475424,57.9643195 82.7132004,58.2814668 L83.7983053,57.4965312 C84.0353539,57.3181359 84.203942,57.1318146 84.3040746,56.9375619 C84.4042072,56.7433092 84.4542728,56.5351845 84.4542728,56.3131814 C84.4542728,55.9999984 84.3469894,55.740338 84.1324196,55.5341923 C83.9178497,55.3280465 83.6184782,55.2249752 83.234296,55.2249752 C82.8174174,55.2249752 82.4955674,55.3538144 82.2687365,55.6114965 C82.0419055,55.8691787 81.9284917,56.1883033 81.9284917,56.5688801 Z M96.7398682,61.296333 C96.7398682,60.8523268 96.5579974,60.4856308 96.1942504,60.1962339 C95.8305034,59.906837 95.2133689,59.6352837 94.3428284,59.3815659 C93.3905469,59.1278481 92.6661291,58.8116966 92.1695531,58.4331021 C91.6729772,58.0545075 91.4246929,57.540142 91.4246929,56.8899901 C91.4246929,56.2279452 91.7026078,55.6838475 92.2584459,55.2576809 C92.814284,54.8315142 93.5233757,54.6184341 94.3857421,54.6184341 C95.2930661,54.6184341 96.0225926,54.8592642 96.5743437,55.3409316 C97.1260948,55.822599 97.3937922,56.4340895 97.377444,57.1754212 L97.3651829,57.2111001 L96.6785628,57.2111001 C96.6785628,56.640235 96.4650179,56.1665034 96.0379217,55.789891 C95.6108256,55.4132786 95.0601045,55.2249752 94.3857421,55.2249752 C93.6909445,55.2249752 93.1463539,55.3845376 92.7519541,55.703667 C92.3575543,56.0227964 92.1603573,56.4142692 92.1603573,56.8780971 C92.1603573,57.318139 92.3391629,57.6798797 92.6967793,57.96333 C93.0543957,58.2467804 93.6848129,58.5113962 94.5880498,58.7571853 C95.5280702,59.0227962 96.2453358,59.3498494 96.7398682,59.7383548 C97.2344006,60.1268602 97.4816631,60.6422168 97.4816631,61.28444 C97.4816631,61.958378 97.192509,62.5004935 96.6141922,62.9108028 C96.0358753,63.3211121 95.3073705,63.5262636 94.4286559,63.5262636 C93.5499412,63.5262636 92.7836318,63.3092192 92.1297046,62.8751239 C91.4757775,62.4410286 91.1590362,61.8077346 91.1794715,60.975223 L91.1917325,60.9395441 L91.8722221,60.9395441 C91.8722221,61.6095177 92.1317456,62.1080261 92.6508003,62.4350842 C93.169855,62.7621424 93.7624676,62.925669 94.4286559,62.925669 C95.1111924,62.925669 95.6670221,62.7740352 96.0961618,62.4707631 C96.5253016,62.1674911 96.7398682,61.7760183 96.7398682,61.296333 Z M99.9338778,63.4013875 L99.2043439,63.4013875 L99.2043439,56.9672944 L99.9338778,56.9672944 L99.9338778,63.4013875 Z M99.9338778,55.123885 L99.2043439,55.123885 L99.2043439,54.1248761 L99.9338778,54.1248761 L99.9338778,55.123885 Z M103.109496,55.3201189 L103.109496,56.9672944 L104.568563,56.9672944 L104.568563,57.5500496 L103.109496,57.5500496 L103.109496,61.7423191 C103.109496,62.1625393 103.18817,62.4608514 103.345521,62.6372646 C103.502873,62.8136778 103.712331,62.9018831 103.973901,62.9018831 C104.063816,62.9018831 104.150665,62.8969277 104.234449,62.8870168 C104.318234,62.877106 104.417343,62.8602578 104.53178,62.8364718 L104.64213,63.3657086 C104.544041,63.4132807 104.422453,63.4519325 104.277363,63.481665 C104.132273,63.5113976 103.988207,63.5262636 103.84516,63.5262636 C103.379237,63.5262636 103.016517,63.3835495 102.75699,63.0981169 C102.497463,62.8126844 102.367701,62.3607563 102.367701,61.7423191 L102.367701,57.5500496 L101.22129,57.5500496 L101.22129,56.9672944 L102.367701,56.9672944 L102.367701,55.3201189 L103.109496,55.3201189 Z M108.52276,63.5262636 C107.66448,63.5262636 106.967649,63.2319157 106.432247,62.6432111 C105.896844,62.0545065 105.629146,61.2983198 105.629146,60.3746283 L105.629146,60.0475719 C105.629146,59.1199161 105.899909,58.3548098 106.441442,57.7522299 C106.982976,57.1496501 107.654263,56.8483647 108.455324,56.8483647 C109.260472,56.8483647 109.882715,57.0991055 110.322072,57.6005946 C110.761429,58.1020838 110.981105,58.7770027 110.981105,59.6253717 L110.981105,60.1783944 L106.364811,60.1783944 L106.364811,60.3746283 C106.364811,61.1080314 106.555877,61.7165486 106.938016,62.2001982 C107.320155,62.6838478 107.848397,62.925669 108.52276,62.925669 C108.927377,62.925669 109.299293,62.8612494 109.638517,62.7324083 C109.977742,62.6035672 110.259744,62.4301299 110.484531,62.2120912 L110.797189,62.6997027 C110.564227,62.9375631 110.258725,63.1347861 109.880673,63.2913776 C109.502622,63.4479691 109.049988,63.5262636 108.52276,63.5262636 Z M108.455324,57.4549058 C107.891312,57.4549058 107.427439,57.6511378 107.063692,58.0436075 C106.699945,58.4360773 106.487422,58.9335946 106.426116,59.5361744 L106.444508,59.5718533 L110.24544,59.5718533 L110.24544,59.4231913 C110.24544,58.8523262 110.091157,58.3815678 109.782585,58.0109019 C109.474013,57.640236 109.031597,57.4549058 108.455324,57.4549058 Z M116.425021,59.8037661 L116.425021,63.4013875 L115.689357,63.4013875 L115.689357,54.7433102 L118.766886,54.7433102 C119.70282,54.7433102 120.427237,54.9752207 120.940162,55.4390486 C121.453086,55.9028765 121.709544,56.5133758 121.709544,57.2705649 C121.709544,58.0396471 121.453086,58.6541107 120.940162,59.1139742 C120.427237,59.5738378 119.70282,59.8037661 118.766886,59.8037661 L116.425021,59.8037661 Z M116.425021,59.197225 L118.766886,59.197225 C119.502554,59.197225 120.054297,59.0158591 120.422131,58.6531219 C120.789965,58.2903847 120.97388,57.8335013 120.97388,57.2824579 C120.97388,56.7274501 120.789965,56.2666024 120.422131,55.8999009 C120.054297,55.5331994 119.502554,55.3498513 118.766886,55.3498513 L116.425021,55.3498513 L116.425021,59.197225 Z M124.082062,63.4013875 L123.352528,63.4013875 L123.352528,54.1248761 L124.082062,54.1248761 L124.082062,63.4013875 Z M130.310687,63.4013875 C130.265729,63.1754201 130.232012,62.9811703 130.209533,62.8186323 C130.187054,62.6560943 130.175815,62.4895945 130.175815,62.3191278 C129.946941,62.6679899 129.626112,62.9563913 129.213321,63.1843409 C128.800529,63.4122905 128.326439,63.5262636 127.791036,63.5262636 C127.141196,63.5262636 126.637475,63.3587727 126.279859,63.0237859 C125.922243,62.6887991 125.743437,62.2338978 125.743437,61.6590684 C125.743437,61.0842389 126.00296,60.6184359 126.522015,60.2616452 C127.04107,59.9048545 127.715422,59.7264618 128.545092,59.7264618 L130.175815,59.7264618 L130.175815,58.9296333 C130.175815,58.4697698 130.025618,58.1090201 129.725221,57.8473736 C129.424823,57.5857271 129.000798,57.4549058 128.453134,57.4549058 C127.950428,57.4549058 127.544795,57.5738343 127.236223,57.8116947 C126.927651,58.0495552 126.773367,58.3488585 126.773367,58.7096135 L126.092878,58.7096135 L126.080617,58.6739346 C126.056094,58.190285 126.269639,57.7651158 126.721258,57.3984143 C127.172876,57.0317127 127.762423,56.8483647 128.489917,56.8483647 C129.217411,56.8483647 129.80185,57.0287395 130.243251,57.3894945 C130.684652,57.7502496 130.905349,58.2675883 130.905349,58.9415263 L130.905349,62.1050545 C130.905349,62.3310219 130.918632,62.5510396 130.945197,62.765114 C130.971763,62.9791884 131.015698,63.1912774 131.077004,63.4013875 L130.310687,63.4013875 Z M127.870733,62.8959366 C128.434745,62.8959366 128.92314,62.7661064 129.335932,62.506442 C129.748723,62.2467777 130.028681,61.912787 130.175815,61.5044599 L130.175815,60.2735382 L128.538962,60.2735382 C127.942253,60.2735382 127.449772,60.4112969 127.061502,60.6868186 C126.673233,60.9623403 126.479101,61.2943489 126.479101,61.6828543 C126.479101,62.0475737 126.602733,62.3409305 126.849999,62.5629336 C127.097265,62.7849367 127.437507,62.8959366 127.870733,62.8959366 Z M133.510827,56.9672944 L133.578263,58.0852329 C133.794876,57.6927632 134.083009,57.3885045 134.442669,57.172448 C134.802328,56.9563914 135.229418,56.8483647 135.723951,56.8483647 C136.443271,56.8483647 136.990926,57.0614448 137.366935,57.4876115 C137.742943,57.9137781 137.930944,58.5787864 137.930944,59.4826561 L137.930944,63.4013875 L137.195279,63.4013875 L137.195279,59.4886026 C137.195279,58.7512352 137.053257,58.2299322 136.769207,57.9246779 C136.485158,57.6194236 136.081568,57.4667988 135.558426,57.4667988 C135.035284,57.4667988 134.613303,57.5916737 134.29247,57.8414272 C133.971637,58.0911806 133.739701,58.4261624 133.596654,58.8463826 L133.596654,63.4013875 L132.86099,63.4013875 L132.86099,56.9672944 L133.510827,56.9672944 Z M140.499639,56.9672944 L140.567075,58.0852329 C140.783688,57.6927632 141.07182,57.3885045 141.43148,57.172448 C141.79114,56.9563914 142.21823,56.8483647 142.712762,56.8483647 C143.432082,56.8483647 143.979738,57.0614448 144.355746,57.4876115 C144.731754,57.9137781 144.919756,58.5787864 144.919756,59.4826561 L144.919756,63.4013875 L144.184091,63.4013875 L144.184091,59.4886026 C144.184091,58.7512352 144.042069,58.2299322 143.758019,57.9246779 C143.473969,57.6194236 143.07038,57.4667988 142.547238,57.4667988 C142.024096,57.4667988 141.602115,57.5916737 141.281282,57.8414272 C140.960449,58.0911806 140.728513,58.4261624 140.585466,58.8463826 L140.585466,63.4013875 L139.849802,63.4013875 L139.849802,56.9672944 L140.499639,56.9672944 Z M147.660106,63.4013875 L146.930572,63.4013875 L146.930572,56.9672944 L147.660106,56.9672944 L147.660106,63.4013875 Z M147.660106,55.123885 L146.930572,55.123885 L146.930572,54.1248761 L147.660106,54.1248761 L147.660106,55.123885 Z M150.33915,56.9672944 L150.406586,58.0852329 C150.623199,57.6927632 150.911332,57.3885045 151.270992,57.172448 C151.630652,56.9563914 152.057741,56.8483647 152.552274,56.8483647 C153.271594,56.8483647 153.819249,57.0614448 154.195258,57.4876115 C154.571266,57.9137781 154.759267,58.5787864 154.759267,59.4826561 L154.759267,63.4013875 L154.023603,63.4013875 L154.023603,59.4886026 C154.023603,58.7512352 153.88158,58.2299322 153.59753,57.9246779 C153.313481,57.6194236 152.909891,57.4667988 152.386749,57.4667988 C151.863608,57.4667988 151.441626,57.5916737 151.120793,57.8414272 C150.79996,58.0911806 150.568024,58.4261624 150.424978,58.8463826 L150.424978,63.4013875 L149.689313,63.4013875 L149.689313,56.9672944 L150.33915,56.9672944 Z M156.414512,60.2378593 C156.414512,59.211095 156.638274,58.3894976 157.085806,57.7730426 C157.533337,57.1565876 158.157624,56.8483647 158.958685,56.8483647 C159.428695,56.8483647 159.837393,56.9464807 160.184792,57.1427156 C160.532191,57.3389504 160.81828,57.6174412 161.043067,57.9781962 L161.147286,56.9672944 L161.741948,56.9672944 L161.741948,63.4370664 C161.741948,64.257685 161.50899,64.8899879 161.043067,65.3339941 C160.577144,65.7780002 159.917096,66 159.062904,66 C158.744114,66 158.403873,65.9623393 158.042169,65.8870168 C157.680466,65.8116944 157.364746,65.7086231 157.095001,65.5777998 L157.236004,64.9772052 C157.501662,65.1040641 157.784685,65.2001979 158.085083,65.2656095 C158.385481,65.3310211 158.707331,65.3637265 159.050643,65.3637265 C159.70457,65.3637265 160.192964,65.2011909 160.515841,64.876115 C160.838717,64.551039 161.000153,64.071361 161.000153,63.4370664 L161.000153,62.5272547 C160.775366,62.8483663 160.490299,63.0951428 160.144943,63.2675917 C159.799588,63.4400405 159.400085,63.5262636 158.946423,63.5262636 C158.153537,63.5262636 157.533337,63.2388532 157.085806,62.6640238 C156.638274,62.0891944 156.414512,61.3221059 156.414512,60.3627354 L156.414512,60.2378593 Z M157.150176,60.3627354 C157.150176,61.1397462 157.311612,61.7581741 157.634489,62.2180377 C157.957365,62.6779012 158.441673,62.9078295 159.087426,62.9078295 C159.553349,62.9078295 159.944678,62.8057493 160.261424,62.6015857 C160.57817,62.3974222 160.82441,62.1169493 161.000153,61.7601586 L161.000153,58.691774 C160.832584,58.331019 160.594518,58.0366711 160.285946,57.8087215 C159.977374,57.5807719 159.581958,57.4667988 159.099687,57.4667988 C158.453934,57.4667988 157.967583,57.7244771 157.640619,58.2398414 C157.313656,58.7552057 157.150176,59.421205 157.150176,60.2378593 L157.150176,60.3627354 Z M171.92477,61.296333 C171.92477,60.8523268 171.742899,60.4856308 171.379152,60.1962339 C171.015405,59.906837 170.39827,59.6352837 169.52773,59.3815659 C168.575448,59.1278481 167.85103,58.8116966 167.354454,58.4331021 C166.857879,58.0545075 166.609594,57.540142 166.609594,56.8899901 C166.609594,56.2279452 166.887509,55.6838475 167.443347,55.2576809 C167.999185,54.8315142 168.708277,54.6184341 169.570643,54.6184341 C170.477967,54.6184341 171.207494,54.8592642 171.759245,55.3409316 C172.310996,55.822599 172.578694,56.4340895 172.562345,57.1754212 L172.550084,57.2111001 L171.863464,57.2111001 C171.863464,56.640235 171.649919,56.1665034 171.222823,55.789891 C170.795727,55.4132786 170.245006,55.2249752 169.570643,55.2249752 C168.875846,55.2249752 168.331255,55.3845376 167.936855,55.703667 C167.542456,56.0227964 167.345259,56.4142692 167.345259,56.8780971 C167.345259,57.318139 167.524064,57.6798797 167.881681,57.96333 C168.239297,58.2467804 168.869714,58.5113962 169.772951,58.7571853 C170.712972,59.0227962 171.430237,59.3498494 171.92477,59.7383548 C172.419302,60.1268602 172.666564,60.6422168 172.666564,61.28444 C172.666564,61.958378 172.37741,62.5004935 171.799094,62.9108028 C171.220777,63.3211121 170.492272,63.5262636 169.613557,63.5262636 C168.734843,63.5262636 167.968533,63.3092192 167.314606,62.8751239 C166.660679,62.4410286 166.343938,61.8077346 166.364373,60.975223 L166.376634,60.9395441 L167.057123,60.9395441 C167.057123,61.6095177 167.316647,62.1080261 167.835702,62.4350842 C168.354756,62.7621424 168.947369,62.925669 169.613557,62.925669 C170.296094,62.925669 170.851923,62.7740352 171.281063,62.4707631 C171.710203,62.1674911 171.92477,61.7760183 171.92477,61.296333 Z M173.886541,60.0891972 C173.886541,59.1417197 174.154239,58.3647206 174.689642,57.7581764 C175.225044,57.1516322 175.934136,56.8483647 176.816938,56.8483647 C177.703827,56.8483647 178.414962,57.1516322 178.950365,57.7581764 C179.485767,58.3647206 179.753465,59.1417197 179.753465,60.0891972 L179.753465,60.2854311 C179.753465,61.2368729 179.486789,62.0148632 178.95343,62.6194252 C178.42007,63.2239872 177.712001,63.5262636 176.829199,63.5262636 C175.938223,63.5262636 175.225044,63.2239872 174.689642,62.6194252 C174.154239,62.0148632 173.886541,61.2368729 173.886541,60.2854311 L173.886541,60.0891972 Z M174.622206,60.2854311 C174.622206,61.0307272 174.816337,61.6570837 175.204607,62.1645193 C175.592876,62.671955 176.134401,62.925669 176.829199,62.925669 C177.511735,62.925669 178.048152,62.671955 178.438465,62.1645193 C178.828778,61.6570837 179.023931,61.0307272 179.023931,60.2854311 L179.023931,60.0891972 C179.023931,59.3557942 178.827756,58.733402 178.435399,58.222002 C178.043043,57.710602 177.503561,57.4549058 176.816938,57.4549058 C176.130314,57.4549058 175.592876,57.710602 175.204607,58.222002 C174.816337,58.733402 174.622206,59.3557942 174.622206,60.0891972 L174.622206,60.2854311 Z M182.107591,63.4013875 L181.378057,63.4013875 L181.378057,54.1248761 L182.107591,54.1248761 L182.107591,63.4013875 Z M188.477218,62.3548067 C188.264692,62.7314191 187.979625,63.0208117 187.622009,63.2229931 C187.264392,63.4251744 186.840368,63.5262636 186.349922,63.5262636 C185.651038,63.5262636 185.103382,63.2963353 184.706938,62.8364718 C184.310495,62.3766082 184.112276,61.6630375 184.112276,60.6957384 L184.112276,56.9672944 L184.847941,56.9672944 L184.847941,60.7076313 C184.847941,61.4925708 184.985876,62.0554988 185.261752,62.3964321 C185.537628,62.7373654 185.928956,62.9078295 186.43575,62.9078295 C186.987501,62.9078295 187.427873,62.78791 187.75688,62.5480674 C188.085888,62.3082248 188.317824,61.9801805 188.452696,61.5639247 L188.452696,56.9672944 L189.188361,56.9672944 L189.188361,63.4013875 L188.538524,63.4013875 L188.477218,62.3548067 Z M192.272021,55.3201189 L192.272021,56.9672944 L193.731088,56.9672944 L193.731088,57.5500496 L192.272021,57.5500496 L192.272021,61.7423191 C192.272021,62.1625393 192.350695,62.4608514 192.508046,62.6372646 C192.665398,62.8136778 192.874855,62.9018831 193.136426,62.9018831 C193.226341,62.9018831 193.31319,62.8969277 193.396974,62.8870168 C193.480759,62.877106 193.579868,62.8602578 193.694305,62.8364718 L193.804655,63.3657086 C193.706566,63.4132807 193.584978,63.4519325 193.439888,63.481665 C193.294798,63.5113976 193.150732,63.5262636 193.007685,63.5262636 C192.541762,63.5262636 192.179042,63.3835495 191.919515,63.0981169 C191.659987,62.8126844 191.530226,62.3607563 191.530226,61.7423191 L191.530226,57.5500496 L190.383815,57.5500496 L190.383815,56.9672944 L191.530226,56.9672944 L191.530226,55.3201189 L192.272021,55.3201189 Z M195.987126,63.4013875 L195.257592,63.4013875 L195.257592,56.9672944 L195.987126,56.9672944 L195.987126,63.4013875 Z M195.987126,55.123885 L195.257592,55.123885 L195.257592,54.1248761 L195.987126,54.1248761 L195.987126,55.123885 Z M197.605588,60.0891972 C197.605588,59.1417197 197.873285,58.3647206 198.408688,57.7581764 C198.944091,57.1516322 199.653182,56.8483647 200.535984,56.8483647 C201.422873,56.8483647 202.134008,57.1516322 202.669411,57.7581764 C203.204814,58.3647206 203.472511,59.1417197 203.472511,60.0891972 L203.472511,60.2854311 C203.472511,61.2368729 203.205835,62.0148632 202.672476,62.6194252 C202.139117,63.2239872 201.431047,63.5262636 200.548245,63.5262636 C199.657269,63.5262636 198.944091,63.2239872 198.408688,62.6194252 C197.873285,62.0148632 197.605588,61.2368729 197.605588,60.2854311 L197.605588,60.0891972 Z M198.341252,60.2854311 C198.341252,61.0307272 198.535384,61.6570837 198.923653,62.1645193 C199.311922,62.671955 199.853448,62.925669 200.548245,62.925669 C201.230782,62.925669 201.767198,62.671955 202.157511,62.1645193 C202.547824,61.6570837 202.742977,61.0307272 202.742977,60.2854311 L202.742977,60.0891972 C202.742977,59.3557942 202.546802,58.733402 202.154446,58.222002 C201.762089,57.710602 201.222608,57.4549058 200.535984,57.4549058 C199.849361,57.4549058 199.311922,57.710602 198.923653,58.222002 C198.535384,58.733402 198.341252,59.3557942 198.341252,60.0891972 L198.341252,60.2854311 Z M205.654982,56.9672944 L205.722418,58.0852329 C205.939031,57.6927632 206.227164,57.3885045 206.586824,57.172448 C206.946484,56.9563914 207.373573,56.8483647 207.868106,56.8483647 C208.587426,56.8483647 209.135082,57.0614448 209.51109,57.4876115 C209.887098,57.9137781 210.075099,58.5787864 210.075099,59.4826561 L210.075099,63.4013875 L209.339435,63.4013875 L209.339435,59.4886026 C209.339435,58.7512352 209.197412,58.2299322 208.913362,57.9246779 C208.629313,57.6194236 208.225723,57.4667988 207.702581,57.4667988 C207.17944,57.4667988 206.757459,57.5916737 206.436626,57.8414272 C206.115793,58.0911806 205.883856,58.4261624 205.74081,58.8463826 L205.74081,63.4013875 L205.005145,63.4013875 L205.005145,56.9672944 L205.654982,56.9672944 Z M215.549668,63.4013875 L215.549668,57.5500496 L214.452302,57.5500496 L214.452302,56.9672944 L215.549668,56.9672944 L215.549668,56.0277502 C215.549668,55.3815627 215.717235,54.8820632 216.052372,54.5292369 C216.38751,54.1764105 216.85547,54 217.456265,54 C217.587051,54 217.721921,54.0099107 217.860881,54.0297324 C217.99984,54.0495541 218.142885,54.0773041 218.290018,54.1129832 L218.19193,54.7016848 C218.093841,54.6778988 217.993709,54.6590685 217.891533,54.6451933 C217.789357,54.6313181 217.668791,54.6243806 217.529832,54.6243806 C217.129301,54.6243806 216.821756,54.7472733 216.607186,54.9930624 C216.392616,55.2388516 216.285333,55.5837441 216.285333,56.0277502 L216.285333,56.9672944 L217.787314,56.9672944 L217.787314,57.5500496 L216.285333,57.5500496 L216.285333,63.4013875 L215.549668,63.4013875 Z M218.670111,60.0891972 C218.670111,59.1417197 218.937809,58.3647206 219.473212,57.7581764 C220.008615,57.1516322 220.717706,56.8483647 221.600508,56.8483647 C222.487397,56.8483647 223.198532,57.1516322 223.733935,57.7581764 C224.269338,58.3647206 224.537035,59.1417197 224.537035,60.0891972 L224.537035,60.2854311 C224.537035,61.2368729 224.270359,62.0148632 223.737,62.6194252 C223.203641,63.2239872 222.495571,63.5262636 221.612769,63.5262636 C220.721793,63.5262636 220.008615,63.2239872 219.473212,62.6194252 C218.937809,62.0148632 218.670111,61.2368729 218.670111,60.2854311 L218.670111,60.0891972 Z M219.405776,60.2854311 C219.405776,61.0307272 219.599908,61.6570837 219.988177,62.1645193 C220.376446,62.671955 220.917971,62.925669 221.612769,62.925669 C222.295306,62.925669 222.831722,62.671955 223.222035,62.1645193 C223.612348,61.6570837 223.807501,61.0307272 223.807501,60.2854311 L223.807501,60.0891972 C223.807501,59.3557942 223.611326,58.733402 223.21897,58.222002 C222.826613,57.710602 222.287131,57.4549058 221.600508,57.4549058 C220.913884,57.4549058 220.376446,57.710602 219.988177,58.222002 C219.599908,58.733402 219.405776,59.3557942 219.405776,60.0891972 L219.405776,60.2854311 Z M229.098154,57.579782 L228.577059,57.5441031 C228.115223,57.5441031 227.736155,57.669969 227.439844,57.9217047 C227.143533,58.1734403 226.932032,58.5193239 226.805334,58.9593657 L226.805334,63.4013875 L226.069669,63.4013875 L226.069669,56.9672944 L226.713376,56.9672944 L226.805334,58.0376611 L226.805334,58.1090188 C226.997425,57.7125847 227.254905,57.4033708 227.577781,57.1813677 C227.900658,56.9593646 228.284834,56.8483647 228.730322,56.8483647 C228.820237,56.8483647 228.906064,56.8553022 228.987805,56.8691774 C229.069546,56.8830526 229.136981,56.8979187 229.190112,56.913776 L229.098154,57.579782 Z M234.296849,59.4886026 L234.296849,63.4013875 L233.561185,63.4013875 L233.561185,54.7492567 L236.534495,54.7492567 C237.490864,54.7492567 238.224477,54.9524261 238.735358,55.3587711 C239.246238,55.765116 239.501675,56.3587672 239.501675,57.1397423 C239.501675,57.5996059 239.365783,58.0109001 239.093994,58.3736373 C238.822206,58.7363745 238.437008,59.0009902 237.938388,59.1674926 C238.490139,59.3022802 238.887598,59.5431103 239.130777,59.8899901 C239.373957,60.2368699 239.495544,60.6719498 239.495544,61.1952428 L239.495544,62.0099108 C239.495544,62.279486 239.52824,62.5213072 239.593633,62.7353816 C239.659026,62.949456 239.767331,63.1238844 239.918551,63.258672 L239.918551,63.4013875 L239.170626,63.4013875 C239.019405,63.2586712 238.913144,63.058475 238.851838,62.8007929 C238.790532,62.5431107 238.75988,62.2755217 238.75988,61.9980178 L238.75988,61.2071358 C238.75988,60.6759141 238.583118,60.2566913 238.229589,59.9494549 C237.876059,59.6422185 237.382556,59.4886026 236.749064,59.4886026 L234.296849,59.4886026 Z M234.296849,58.8820614 L236.448668,58.8820614 C237.253816,58.8820614 237.842341,58.7244813 238.214262,58.4093162 C238.586183,58.0941511 238.772141,57.6689819 238.772141,57.1337958 C238.772141,56.5629307 238.587205,56.1238866 238.217328,55.8166501 C237.84745,55.5094137 237.286511,55.3557978 236.534495,55.3557978 L234.296849,55.3557978 L234.296849,58.8820614 Z M244.117969,63.5262636 C243.25969,63.5262636 242.562859,63.2319157 242.027456,62.6432111 C241.492053,62.0545065 241.224356,61.2983198 241.224356,60.3746283 L241.224356,60.0475719 C241.224356,59.1199161 241.495118,58.3548098 242.036652,57.7522299 C242.578185,57.1496501 243.249472,56.8483647 244.050533,56.8483647 C244.855681,56.8483647 245.477924,57.0991055 245.917282,57.6005946 C246.356639,58.1020838 246.576314,58.7770027 246.576314,59.6253717 L246.576314,60.1783944 L241.96002,60.1783944 L241.96002,60.3746283 C241.96002,61.1080314 242.151087,61.7165486 242.533225,62.2001982 C242.915364,62.6838478 243.443607,62.925669 244.117969,62.925669 C244.522586,62.925669 244.894502,62.8612494 245.233727,62.7324083 C245.572951,62.6035672 245.854953,62.4301299 246.079741,62.2120912 L246.392398,62.6997027 C246.159437,62.9375631 245.853935,63.1347861 245.475883,63.2913776 C245.097831,63.4479691 244.645198,63.5262636 244.117969,63.5262636 Z M244.050533,57.4549058 C243.486521,57.4549058 243.022648,57.6511378 242.658901,58.0436075 C242.295154,58.4360773 242.082631,58.9335946 242.021326,59.5361744 L242.039717,59.5718533 L245.84065,59.5718533 L245.84065,59.4231913 C245.84065,58.8523262 245.686366,58.3815678 245.377794,58.0109019 C245.069222,57.640236 244.626806,57.4549058 244.050533,57.4549058 Z M249.206314,55.3201189 L249.206314,56.9672944 L250.665382,56.9672944 L250.665382,57.5500496 L249.206314,57.5500496 L249.206314,61.7423191 C249.206314,62.1625393 249.284989,62.4608514 249.44234,62.6372646 C249.599691,62.8136778 249.809149,62.9018831 250.07072,62.9018831 C250.160635,62.9018831 250.247484,62.8969277 250.331268,62.8870168 C250.415052,62.877106 250.514162,62.8602578 250.628599,62.8364718 L250.738949,63.3657086 C250.64086,63.4132807 250.519272,63.4519325 250.374182,63.481665 C250.229092,63.5113976 250.085025,63.5262636 249.941979,63.5262636 C249.476056,63.5262636 249.113336,63.3835495 248.853809,63.0981169 C248.594281,62.8126844 248.46452,62.3607563 248.46452,61.7423191 L248.46452,57.5500496 L247.318109,57.5500496 L247.318109,56.9672944 L248.46452,56.9672944 L248.46452,55.3201189 L249.206314,55.3201189 Z M256.299345,63.4013875 C256.254388,63.1754201 256.22067,62.9811703 256.198191,62.8186323 C256.175713,62.6560943 256.164474,62.4895945 256.164474,62.3191278 C255.935599,62.6679899 255.614771,62.9563913 255.201979,63.1843409 C254.789188,63.4122905 254.315098,63.5262636 253.779695,63.5262636 C253.129855,63.5262636 252.626134,63.3587727 252.268518,63.0237859 C251.910901,62.6887991 251.732096,62.2338978 251.732096,61.6590684 C251.732096,61.0842389 251.991619,60.6184359 252.510674,60.2616452 C253.029728,59.9048545 253.704081,59.7264618 254.533751,59.7264618 L256.164474,59.7264618 L256.164474,58.9296333 C256.164474,58.4697698 256.014277,58.1090201 255.713879,57.8473736 C255.413481,57.5857271 254.989457,57.4549058 254.441793,57.4549058 C253.939086,57.4549058 253.533453,57.5738343 253.224881,57.8116947 C252.916309,58.0495552 252.762026,58.3488585 252.762026,58.7096135 L252.081536,58.7096135 L252.069275,58.6739346 C252.044753,58.190285 252.258298,57.7651158 252.709916,57.3984143 C253.161535,57.0317127 253.751082,56.8483647 254.478576,56.8483647 C255.20607,56.8483647 255.790509,57.0287395 256.231909,57.3894945 C256.67331,57.7502496 256.894007,58.2675883 256.894007,58.9415263 L256.894007,62.1050545 C256.894007,62.3310219 256.90729,62.5510396 256.933856,62.765114 C256.960422,62.9791884 257.004357,63.1912774 257.065662,63.4013875 L256.299345,63.4013875 Z M253.859392,62.8959366 C254.423404,62.8959366 254.911798,62.7661064 255.32459,62.506442 C255.737382,62.2467777 256.01734,61.912787 256.164474,61.5044599 L256.164474,60.2735382 L254.52762,60.2735382 C253.930912,60.2735382 253.43843,60.4112969 253.050161,60.6868186 C252.661892,60.9623403 252.46776,61.2943489 252.46776,61.6828543 C252.46776,62.0475737 252.591391,62.3409305 252.838657,62.5629336 C253.085924,62.7849367 253.426165,62.8959366 253.859392,62.8959366 Z M259.67114,63.4013875 L258.941607,63.4013875 L258.941607,56.9672944 L259.67114,56.9672944 L259.67114,63.4013875 Z M259.67114,55.123885 L258.941607,55.123885 L258.941607,54.1248761 L259.67114,54.1248761 L259.67114,55.123885 Z M262.52184,63.4013875 L261.792306,63.4013875 L261.792306,54.1248761 L262.52184,54.1248761 L262.52184,63.4013875 Z M267.070698,63.5262636 C266.212419,63.5262636 265.515588,63.2319157 264.980185,62.6432111 C264.444782,62.0545065 264.177085,61.2983198 264.177085,60.3746283 L264.177085,60.0475719 C264.177085,59.1199161 264.447848,58.3548098 264.989381,57.7522299 C265.530914,57.1496501 266.202202,56.8483647 267.003262,56.8483647 C267.80841,56.8483647 268.430653,57.0991055 268.870011,57.6005946 C269.309368,58.1020838 269.529043,58.7770027 269.529043,59.6253717 L269.529043,60.1783944 L264.912749,60.1783944 L264.912749,60.3746283 C264.912749,61.1080314 265.103816,61.7165486 265.485955,62.2001982 C265.868093,62.6838478 266.396336,62.925669 267.070698,62.925669 C267.475316,62.925669 267.847231,62.8612494 268.186456,62.7324083 C268.525681,62.6035672 268.807682,62.4301299 269.03247,62.2120912 L269.345127,62.6997027 C269.112166,62.9375631 268.806664,63.1347861 268.428612,63.2913776 C268.05056,63.4479691 267.597927,63.5262636 267.070698,63.5262636 Z M267.003262,57.4549058 C266.43925,57.4549058 265.975377,57.6511378 265.611631,58.0436075 C265.247884,58.4360773 265.03536,58.9335946 264.974055,59.5361744 L264.992446,59.5718533 L268.793379,59.5718533 L268.793379,59.4231913 C268.793379,58.8523262 268.639095,58.3815678 268.330524,58.0109019 C268.021952,57.640236 267.579536,57.4549058 267.003262,57.4549058 Z M274.041118,57.579782 L273.520023,57.5441031 C273.058187,57.5441031 272.679119,57.669969 272.382808,57.9217047 C272.086497,58.1734403 271.874996,58.5193239 271.748298,58.9593657 L271.748298,63.4013875 L271.012633,63.4013875 L271.012633,56.9672944 L271.65634,56.9672944 L271.748298,58.0376611 L271.748298,58.1090188 C271.940389,57.7125847 272.197869,57.4033708 272.520745,57.1813677 C272.843622,56.9593646 273.227798,56.8483647 273.673286,56.8483647 C273.763201,56.8483647 273.849028,56.8553022 273.930769,56.8691774 C274.01251,56.8830526 274.079945,56.8979187 274.133076,56.913776 L274.041118,57.579782 Z M279.270466,61.7542121 C279.270466,61.4529222 279.142748,61.1902885 278.887308,60.9663033 C278.631867,60.742318 278.17106,60.55897 277.504872,60.4162537 C276.720159,60.2576801 276.136742,60.0406357 275.754603,59.765114 C275.372465,59.4895923 275.181398,59.1040659 275.181398,58.6085233 C275.181398,58.116945 275.394943,57.7006955 275.822039,57.3597621 C276.249135,57.0188288 276.814161,56.8483647 277.517133,56.8483647 C278.256888,56.8483647 278.847457,57.0297306 279.288858,57.3924678 C279.730259,57.755205 279.940738,58.2021777 279.920303,58.7333994 L279.908042,58.7690783 L279.227552,58.7690783 C279.227552,58.416252 279.071225,58.1090201 278.758566,57.8473736 C278.445907,57.5857271 278.0321,57.4549058 277.517133,57.4549058 C276.985817,57.4549058 276.585292,57.5678879 276.315547,57.7938553 C276.045803,58.0198227 275.910932,58.2834475 275.910932,58.5847374 C275.910932,58.8780986 276.026389,59.1209108 276.257307,59.3131814 C276.488225,59.5054519 276.949033,59.6749249 277.639743,59.8216056 C278.416282,59.9881079 279.003786,60.2200183 279.402273,60.5173439 C279.80076,60.8146695 280,61.2150619 280,61.7185332 C280,62.2537192 279.776238,62.6887991 279.328706,63.0237859 C278.881175,63.3587727 278.289584,63.5262636 277.553916,63.5262636 C276.748768,63.5262636 276.116307,63.3399424 275.656515,62.9672944 C275.196722,62.5946463 274.97909,62.1506468 275.003613,61.6352825 L275.015874,61.5996036 L275.690233,61.5996036 C275.718842,62.0634315 275.913996,62.4003954 276.275699,62.6105055 C276.637402,62.8206155 277.06347,62.925669 277.553916,62.925669 C278.085232,62.925669 278.504148,62.8107048 278.810676,62.580773 C279.117204,62.3508413 279.270466,62.0753237 279.270466,61.7542121 Z" id="Geomarketing-&amp;-Site" fill="#9397A2"></path>
            <g id="logos/reveal-logotipo">
                <path d="M163.282927,32.8360345 L175.094217,21 L163.282927,9.16396546 L151.471637,21 L163.282927,32.8360345 Z" id="Fill-1" stroke="url(#linearGradient-1)" stroke-width="6"></path>
                <g id="Page-1" stroke-width="1" fill-rule="evenodd" fill="#2F3956">
                    <path d="M15.4514287,11.474899 C14.5928512,11.3324733 13.7195421,11.2156218 12.8227871,11.1270475 C11.9032087,11.0372257 10.9757457,10.9916911 10.0499427,10.9916911 C8.49690911,10.9916911 6.89988849,11.1565723 5.29456842,11.4815525 C3.68738098,11.8077802 2.21277716,12.2855822 0.873039324,12.9024832 C0.321541232,13.133899 -6.22458343e-05,13.6362356 -6.22458343e-05,14.2219485 L-6.22458343e-05,39.045404 C-6.22458343e-05,39.8292653 0.537119305,40.3368 1.32494408,40.3368 L2.39785478,40.3368 C3.18567956,40.3368 3.73468781,39.8292653 3.73468781,39.045404 L3.73468781,15.6694931 C4.56463227,15.3671762 5.52902773,15.1286911 6.50296755,14.9592356 C7.73854737,14.7446614 8.97163734,14.6357109 10.1565905,14.6357109 C10.9888173,14.6357109 11.8488473,14.669602 12.7059724,14.7363446 C13.5330121,14.8018396 14.3316261,14.8997703 15.0777462,15.0274337 C15.5948016,15.1675723 15.9332115,14.9800277 16.1126869,14.8509089 C16.306064,14.7113941 16.5988269,14.383295 16.5988269,13.7520475 L16.5988269,12.8658891 C16.5988269,12.1529287 16.1581264,11.5940376 15.4514287,11.474899" id="Fill-1"></path>
                    <path d="M22.4085004,24.326795 L22.4085004,21.9400723 C22.4085004,19.5749733 23.0620816,17.8477752 24.3742238,16.6597158 C25.7245434,15.4377653 27.5213732,14.8437356 29.8514423,14.8437356 C32.1466537,14.8437356 33.9652695,15.4460822 35.3319805,16.6848743 C36.6630039,17.8920624 37.3475006,19.6111515 37.3475006,21.9400723 L37.3475006,24.326795 L22.4085004,24.326795 Z M39.9296653,28.2772901 C40.8318149,28.2772901 41.4972229,27.5379238 41.4972229,26.6340921 L41.4972229,21.9400723 C41.4972229,20.2218149 41.2061199,18.6503495 40.6421726,17.2689238 C40.0707559,15.8708644 39.2451686,14.6688743 38.1925915,13.695597 C37.147069,12.729597 35.8915705,11.9918941 34.4628212,11.5024485 C33.0668546,11.0254782 31.5177632,10.7836663 29.8597417,10.7836663 C28.2006827,10.7836663 26.6522139,11.0254782 25.2572847,11.5026564 C23.8287428,11.9916861 22.5742818,12.729597 21.5283443,13.6960129 C20.4753522,14.6699139 19.6655339,15.871904 19.0947396,17.2691317 C18.5309999,18.6484782 18.2587781,20.2201515 18.2587781,21.9400723 L18.2587781,30.3887257 C18.2587781,32.0735079 18.5872286,33.6123297 19.2615585,34.9619436 C19.9250991,36.2926366 20.8033878,37.4270525 21.8852204,38.3335871 C22.9506616,39.2272307 24.1905986,39.924805 25.5774358,40.4065574 C26.9530687,40.8849832 28.4019443,41.1276267 29.8869224,41.1276267 C32.297911,41.1276267 34.4240213,40.659805 36.2086093,39.7368446 C37.8693282,38.8773 39.3016048,37.9129634 40.4685067,36.8689931 C40.9409526,36.5529535 41.0785159,36.1250525 41.1183532,35.8832406 C41.1615104,35.6200129 41.1637927,35.1120624 40.7162452,34.6130525 L40.1798936,33.9481218 C39.687529,33.3120921 38.8544723,33.1665475 38.1423799,33.5963198 C38.0753619,33.6366564 38.0120786,33.6836465 37.953775,33.7360426 C37.0246522,34.5710525 35.8807813,35.3557455 34.5528701,36.0687059 C33.3195727,36.7319733 31.7667466,37.0681812 29.9373415,37.0681812 C28.9011559,37.0681812 27.9077123,36.9074584 26.9841916,36.5899634 C26.0766474,36.2782901 25.2745061,35.8308446 24.5993462,35.2594782 C23.9320709,34.695597 23.4004915,34.0171515 23.0056454,33.1848446 C22.6197212,32.3729139 22.4085004,31.4268743 22.4085004,30.3727158 L22.4085004,28.2772901 L39.9296653,28.2772901 Z" id="Fill-4"></path>
                    <path d="M68.5806344,11.7044436 C68.2563336,11.2879782 67.7683263,11.0199683 67.2068688,11.0199683 L66.1466148,11.0199683 C65.3436435,11.0199683 64.6693137,11.5162752 64.387755,12.2504436 L56.2667485,33.3292455 L48.1007175,12.2770574 C48.0708395,12.2001267 48.0347369,12.0918 47.9919947,12.0211069 C47.6237069,11.4062851 47.0369362,11.0199683 46.3823175,11.0199683 L45.2894881,11.0199683 C44.7479493,11.0199683 44.2400233,11.304404 43.8962188,11.7337604 C43.4714948,12.2639584 43.407589,12.9783743 43.7134236,13.5751069 L53.8551374,39.591404 C54.1425056,40.3205822 54.7994067,40.7526416 55.5698026,40.7526416 L56.8676283,40.7526416 C57.5552372,40.7526416 58.1606817,40.4303644 58.5289696,39.8153347 C58.5706743,39.7452653 58.6065694,39.6874634 58.6360324,39.6113644 L68.8126039,13.4911069 C68.8352199,13.4339287 68.8536861,13.3594931 68.8688326,13.2998198 C69.0678118,12.5024436 68.773804,11.9522851 68.5806344,11.7044436" id="Fill-6"></path>
                    <path d="M76.147404,23.9109535 L76.147404,21.9400723 C76.147404,19.6995178 76.7401918,18.0731614 77.9602102,16.9682703 C79.2308552,15.8184683 80.928714,15.2595772 83.1513053,15.2595772 C85.3392464,15.2595772 87.0788099,15.8267851 88.3658463,16.9930129 C89.6045384,18.1170327 90.2564598,19.7352802 90.2564598,21.9400723 L90.2564598,23.9109535 L76.147404,23.9109535 Z M93.2216439,28.6931317 C94.3458036,28.6931317 95.2361265,27.7606069 95.2361265,26.6340921 L95.2361265,21.9400723 C95.2361265,20.1673396 94.9186728,18.5428545 94.3341844,17.1113198 C93.7395292,15.6567059 92.8711998,14.4048149 91.7740132,13.3899535 C90.685956,12.3844485 89.3769262,11.6172208 87.892778,11.1088545 C86.4534468,10.6171218 84.8574636,10.3678248 83.1537951,10.3678248 C81.4490892,10.3678248 79.8543509,10.6171218 78.4160572,11.1092703 C76.9325315,11.6170129 75.6278588,12.3842406 74.5391791,13.3903693 C73.4411626,14.4058545 72.6126706,15.6579535 72.0192603,17.1113198 C71.4347719,18.5409832 71.1677373,20.1654683 71.1677373,21.9400723 L71.1677373,30.3887257 C71.1677373,32.1385871 71.4951504,33.740201 72.1983208,35.1480327 C72.8875897,36.5298743 73.7930591,37.7089931 74.9186712,38.6523297 C76.0229123,39.5786168 77.3028942,40.3009337 78.7372457,40.7995277 C80.1568657,41.2931317 81.6495208,41.5434683 83.1809758,41.5434683 C85.658775,41.5434683 87.847961,41.0600525 89.6918901,40.1065277 C91.3762624,39.2347158 92.8313625,38.255201 94.0215028,37.1935574 C94.4520365,36.8916564 94.7379524,36.4508644 94.8197019,35.9506069 C94.8751007,35.6141911 94.8800804,34.9677653 94.3242251,34.3429634 L93.7965879,33.6894683 C93.1797317,32.8968743 92.1039162,32.7066267 91.2202328,33.2399436 C91.1305988,33.2942109 91.0465669,33.3565871 90.9687596,33.4264485 C90.0641202,34.2392109 88.9472224,35.0047752 87.6485668,35.7023495 C86.4762703,36.3327653 84.9894248,36.6523396 83.2293201,36.6523396 C82.2389888,36.6523396 81.2907773,36.499102 80.4106212,36.1965772 C79.5518362,35.9017455 78.7947193,35.4798743 78.1587744,34.9417752 C77.5379759,34.4169832 77.0574381,33.7840723 76.6883203,33.0060327 C76.3289544,32.2504485 76.147404,31.364498 76.147404,30.3727158 L76.147404,28.6931317 L93.2216439,28.6931317 Z" id="Fill-8"></path>
                    <path d="M103.310864,31.5366149 C103.310864,30.0231594 103.797834,28.9542386 104.842941,28.1724564 C106.028724,27.2856743 107.905021,26.8361495 110.419545,26.8361495 C111.813437,26.8361495 113.229737,26.9263871 114.563666,27.1043673 C115.290074,27.2014663 115.984738,27.3060505 116.607196,27.417496 L116.607196,35.5338921 C115.984738,35.7176941 115.309578,35.8896446 114.590639,36.0476644 C113.395519,36.3111 111.986688,36.4443772 110.435729,36.4443772 C109.301403,36.4443772 108.251523,36.3119317 107.332774,36.0505752 C106.47067,35.804605 105.72289,35.4471891 105.11703,34.9868525 C104.529637,34.5408624 104.084372,34.0339515 103.759864,33.4363871 C103.459216,32.8822782 103.310864,32.260595 103.310864,31.5366149 M119.136867,13.3460406 C117.196664,11.231902 114.272148,10.1598624 110.448386,10.1598624 C108.402988,10.1598624 106.461333,10.4324465 104.67882,10.9699218 C102.874313,11.5144663 101.31381,12.255496 100.04192,13.171803 C99.9601704,13.2308525 99.8827781,13.2963475 99.8114028,13.3678723 C99.5337864,13.6462782 98.9341516,14.4307634 99.3617804,15.704902 C99.4109546,15.8508624 99.4775577,15.9899614 99.5603447,16.1192881 L100.028433,16.8495059 C100.100224,16.9613673 100.183633,17.0653277 100.277417,17.1597238 C101.017105,17.9034564 102.122591,18.0390208 103.026815,17.4963475 C103.03553,17.4911495 103.044037,17.4859515 103.052751,17.4805455 C103.92025,16.941199 105.011212,16.4627733 106.295136,16.0594069 C107.547315,15.6666446 108.926475,15.4674564 110.394647,15.4674564 C112.685294,15.4674564 114.312607,15.9820604 115.16745,16.9971297 C116.114209,18.1217733 116.607196,19.6576842 116.607196,21.692605 L116.607196,22.1142683 C115.984738,22.0298525 115.61811,21.9483475 115.109977,21.8695455 C113.647199,21.6433277 112.055366,21.5285554 110.410831,21.5285554 C106.648485,21.5285554 103.61981,22.3652287 101.424607,24.0150802 C99.0638304,25.7890604 97.8629007,28.3194564 97.8629007,31.5359911 C97.8629007,33.1577733 98.2050454,34.6352584 98.8843549,35.9289416 C99.5526677,37.1995455 100.487808,38.2888426 101.664461,39.1652287 C102.795053,40.0081396 104.134584,40.6599713 105.646742,41.1026347 C107.116574,41.5330307 108.723346,41.7513475 110.422865,41.7513475 C112.498141,41.7513475 114.435024,41.5517436 116.179775,41.1579416 C117.878671,40.7751594 119.351408,40.3160703 120.558977,39.7933574 C121.084332,39.5916743 121.502831,39.2199119 121.744345,38.7371198 C121.74808,38.7300505 121.755342,38.7227733 121.758662,38.7152881 C121.917596,38.3871891 122.001835,38.0422485 122.001835,37.6900307 L122.001835,21.6271099 C122.001835,18.2016149 121.03578,15.4156842 119.136867,13.3460406" id="Fill-10"></path>
                    <path d="M138.730403,36.0278287 C138.638072,36.0278287 138.559435,36.0338584 138.467726,36.0463337 C137.99777,36.1097495 137.519307,36.1573634 137.029017,36.1887594 C136.54267,36.2205713 136.127282,36.2365812 135.788043,36.2365812 C134.56263,36.2365812 133.989968,35.7914228 133.661518,35.4046901 C133.350703,35.0379178 132.791113,34.0340762 132.791113,31.4315317 L132.791113,2.38354158 C132.791113,1.01958119 131.839789,0.000145544554 130.473286,0.000145544554 L129.399753,0.000145544554 C128.033249,0.000145544554 126.981502,1.01958119 126.981502,2.38354158 L126.981502,31.2749673 C126.981502,34.9058881 127.764762,37.5219475 129.352653,39.2703535 C130.970423,41.0545218 133.121016,41.9591851 135.733889,41.9591851 C136.188076,41.9591851 136.716543,41.9408881 137.346886,41.9032545 C137.975154,41.8645812 138.555078,41.8055317 139.067568,41.7275614 C139.080432,41.7254822 139.066946,41.7236109 139.07981,41.7213238 C140.279495,41.5156901 141.090558,40.5010366 141.090558,39.2543436 L141.090558,38.3679772 C141.090558,37.0339574 140.091512,36.0278287 138.730403,36.0278287" id="Fill-12"></path>
                </g>
            </g>
        </g>
    </g>
</svg>