<svg width="16px" height="16px" xmlns="http://www.w3.org/2000/svg"><path d="M15.2005128,16 L0.800287177,16 C0.522682827,16 0.265878803,15.8556807 0.119476508,15.6199592 C-0.0269257857,15.3826341 -0.0389259738,15.088383 0.0842759568,14.8390314 L7.28438879,0.40710071 C7.55559304,-0.135700237 8.44440696,-0.135700237 8.71561121,0.40710071 L15.915724,14.8390314 C16.038926,15.088383 16.0269258,15.3818323 15.8805235,15.6199592 C15.7349212,15.8564825 15.4781172,16 15.2005128,16 Z M2.09470746,14.3964522 L13.9060926,14.3964522 L8.00040001,2.5598637 L2.09470746,14.3964522 Z M7,6 L9,6 L9,11 L7,11 L7,6 Z M8.70710729,12.2928927 C9.0976309,12.6834163 9.0976309,13.3165797 8.70710729,13.7071073 C8.31658368,14.0976309 7.68342032,14.0976309 7.29289271,13.7071073 C6.9023691,13.3165837 6.9023691,12.6834203 7.29289271,12.2928927 C7.68341632,11.9023691 8.31657968,11.9023691 8.70710729,12.2928927 Z"/></svg>