<svg width="16px" height="16px" xmlns="http://www.w3.org/2000/svg"><path d="M2.85691729,10.1464466 L7.01970529,14.2928932 L7.01970529,0.535714286 C7.01970529,0.239847455 7.24444515,0 7.52167582,0 C7.79890649,0 8.02364635,0.239847455 8.02364635,0.535714286 L8.02364635,14.2928932 L12.1430827,10.1896281 C12.3391144,9.99436593 12.6569446,9.99436593 12.8529762,10.1896281 C13.0490079,10.3848902 13.0490079,10.7014727 12.8529762,10.8967349 L7.87662259,15.8535534 C7.77860674,15.9511845 7.65014128,16 7.52167582,16 C7.39321036,16 7.2647449,15.9511845 7.16672906,15.8535534 L2.14702376,10.8535534 C1.95099208,10.6582912 1.95099208,10.3417088 2.14702376,10.1464466 C2.34305545,9.95118446 2.66088561,9.95118446 2.85691729,10.1464466 Z"/></svg>