<svg width="16px" height="16px" xmlns="http://www.w3.org/2000/svg"><path d="M8,8.58232323 L1.70292632,14.8793969 C1.5421222,15.040201 1.28140721,15.040201 1.12060309,14.8793969 C0.95979897,14.7185928 0.95979897,14.4578778 1.12060309,14.2970737 L7.41767677,8 L1.12060309,1.70292632 C0.95979897,1.5421222 0.95979897,1.28140721 1.12060309,1.12060309 C1.28140721,0.95979897 1.5421222,0.95979897 1.70292632,1.12060309 L8,7.41767677 L14.2970737,1.12060309 C14.4578778,0.95979897 14.7185928,0.95979897 14.8793969,1.12060309 C15.040201,1.28140721 15.040201,1.5421222 14.8793969,1.70292632 L8.58232323,8 L14.8793969,14.2970737 C15.040201,14.4578778 15.040201,14.7185928 14.8793969,14.8793969 C14.7185928,15.040201 14.4578778,15.040201 14.2970737,14.8793969 L8,8.58232323 Z"/></svg>