<svg width="16px" height="16px" xmlns="http://www.w3.org/2000/svg"><path d="M2,4.5 C2,4.22385763 2.22900057,4 2.50034732,4 L13.4996527,4 C13.7759869,4 14,4.23193359 14,4.5 C14,4.77614237 13.7709994,5 13.4996527,5 L2.50034732,5 C2.22401312,5 2,4.76806641 2,4.5 L2,4.5 Z M2,8.5 C2,8.22385763 2.22900057,8 2.50034732,8 L13.4996527,8 C13.7759869,8 14,8.23193359 14,8.5 C14,8.77614237 13.7709994,9 13.4996527,9 L2.50034732,9 C2.22401312,9 2,8.76806641 2,8.5 L2,8.5 Z M2,12.5 C2,12.2238576 2.22900057,12 2.50034732,12 L13.4996527,12 C13.7759869,12 14,12.2319336 14,12.5 C14,12.7761424 13.7709994,13 13.4996527,13 L2.50034732,13 C2.22401312,13 2,12.7680664 2,12.5 L2,12.5 Z"/></svg>