<svg width="16px" height="16px" xmlns="http://www.w3.org/2000/svg"><path d="M15,8.51010987 L15,9.51010987 L15,15.5101099 L10,15.5101099 L10,11.5101099 L6,11.5101099 L6,15.5101099 L1,15.5101099 L1,8.51010987 L2,8.51010987 L2,14.5101099 L5,14.5101099 L5,10.5101099 L6,10.5101099 L10,10.5101099 L11,10.5101099 L11,14.5101099 L14,14.5101099 L14,8.51010987 L15,8.51010987 Z M16,7.5099572 L16,8.5099572 L15.4212036,8.5099572 L8,1.48508546 L0.581420898,8.5099572 L0,8.5099572 L0,7.5099572 C5.40377925,2.48012734 8.07044591,-0.0231380106 8,0.000161142894 L16,7.5099572 Z M11,1.51010987 L11,0.510109873 L14,0.510109873 L14,3.51010987 L13,3.51010987 L13,1.51010987 L11,1.51010987 Z"/></svg>