<svg width="16px" height="16px" xmlns="http://www.w3.org/2000/svg"><path d="M14.5420063,13.4106724 L11.6220048,10.4900042 C12.2753385,9.60533714 12.666672,8.51600326 12.666672,7.333336 C12.666672,4.39266786 10.2740041,2 7.333336,2 C4.39266786,2 2,4.39266786 2,7.333336 C2,10.2740041 4.39266786,12.666672 7.333336,12.666672 C8.49133658,12.666672 9.56133711,12.2913385 10.4366709,11.6620048 L13.3640057,14.5893396 L14.5420063,13.4106724 Z M3.333334,7.333336 C3.333334,5.1273349 5.1273349,3.333334 7.333336,3.333334 C9.5393371,3.333334 11.333338,5.1273349 11.333338,7.333336 C11.333338,9.5393371 9.5393371,11.333338 7.333336,11.333338 C5.1273349,11.333338 3.333334,9.5393371 3.333334,7.333336 Z"/></svg>