<svg width="16px" height="16px" xmlns="http://www.w3.org/2000/svg"><path d="M8,8 C6.89733333,8 6,7.10266667 6,6 C6,4.89733333 6.89733333,4 8,4 C9.10266667,4 10,4.89733333 10,6 C10,7.10266667 9.10266667,8 8,8 Z M8,5.33333333 C7.63266667,5.33333333 7.33333333,5.63266667 7.33333333,6 C7.33333333,6.368 7.63266667,6.66666667 8,6.66666667 C8.36733333,6.66666667 8.66666667,6.368 8.66666667,6 C8.66666667,5.63266667 8.36733333,5.33333333 8,5.33333333 Z M8,15 C6.315,12.8681957 3,8.40813858 3,5.741859 C3,3.12706247 5.24285714,1 8,1 C10.7571429,1 13,3.12706247 13,5.741859 C13,8.40813858 9.685,12.8688731 8,15 Z M8,2.35481686 C6.03071429,2.35481686 4.42857143,3.87424396 4.42857143,5.741859 C4.42857143,7.49702424 6.64785714,10.8786471 8,12.7130691 C9.35142857,10.8779697 11.5714286,7.49566942 11.5714286,5.741859 C11.5714286,3.87424396 9.96928571,2.35481686 8,2.35481686 Z"/></svg>