<svg width="16px" height="16px" xmlns="http://www.w3.org/2000/svg"><path d="M13.8806736,2.11933439 C13.3740067,1.61200081 12.6993397,1.333334 11.9826727,1.333334 C11.2666723,1.333334 10.5920053,1.61200081 10.0853384,2.11933439 L2.47933457,9.72467153 C2.47933457,9.72467153 2.47866791,9.72667153 2.47733457,9.7273382 C2.42333454,9.78200489 2.3313345,9.92600496 2.30333448,10.0346717 L1.35333401,13.8373403 C1.29600065,14.064007 1.36333402,14.3053405 1.52866743,14.4700072 L1.5293341,14.4706739 L1.53000077,14.4713406 C1.69533418,14.636674 1.9353343,14.7040074 2.16266775,14.6473407 L5.96533632,13.6960068 C6.07400304,13.6680068 6.21866978,13.5760068 6.2726698,13.5220068 C6.27333647,13.5213401 6.27533647,13.5200068 6.27533647,13.5200068 L13.8813403,5.91533629 C14.3880072,5.4080027 14.6673407,4.73466903 14.666674,4.01733534 C14.666674,3.30066832 14.3880072,2.62666798 13.8813403,2.11933439 L13.8806736,2.11933439 Z M9.60733814,4.48533558 L11.5160058,6.3940032 L5.8040029,12.1060061 L3.89533528,10.1973384 L9.60733814,4.48533558 Z M2.91666813,13.0840065 L3.31333499,11.5013391 L4.50000225,12.688673 L2.91666813,13.0840065 Z M12.9393398,3.0626682 C13.4486734,3.57266845 13.4486734,4.46200223 12.9393398,4.97200249 L12.4600062,5.45200273 L10.5493386,3.54200177 L11.0300055,3.0626682 C11.5400058,2.55333461 12.4293395,2.55266794 12.9393398,3.0626682 Z"/></svg>