<svg width="16px" height="16px" xmlns="http://www.w3.org/2000/svg"><path d="M12.9499909,4 L15,4 L15,5 L12.9499909,5 C12.7183558,6.14112016 11.709479,7 10.5,7 C9.29052104,7 8.28164422,6.14112016 8.05000906,5 L1,5 L1,4 L8.05000906,4 C8.28164422,2.85887984 9.29052104,2 10.5,2 C11.709479,2 12.7183558,2.85887984 12.9499909,4 Z M3.05000906,11 C3.28164422,9.85887984 4.29052104,9 5.5,9 C6.70947896,9 7.71835578,9.85887984 7.94999094,11 L15,11 L15,12 L7.94999094,12 C7.71835578,13.1411202 6.70947896,14 5.5,14 C4.29052104,14 3.28164422,13.1411202 3.05000906,12 L1,12 L1,11 L3.05000906,11 Z M5.5,13 C6.32842712,13 7,12.3284271 7,11.5 C7,10.6715729 6.32842712,10 5.5,10 C4.67157288,10 4,10.6715729 4,11.5 C4,12.3284271 4.67157288,13 5.5,13 Z M10.5,6 C11.3284271,6 12,5.32842712 12,4.5 C12,3.67157288 11.3284271,3 10.5,3 C9.67157288,3 9,3.67157288 9,4.5 C9,5.32842712 9.67157288,6 10.5,6 Z"/></svg>