<svg width="16px" height="16px" xmlns="http://www.w3.org/2000/svg"><path d="M1.14644661,8.85355769 L5.14644661,12.8535577 C5.34170876,13.0488198 5.65829124,13.0488198 5.85355339,12.8535577 C6.04881554,12.6582955 6.04881554,12.3417131 5.85355339,12.1464509 L1.85355339,8.14645091 C1.65829124,7.95118876 1.34170876,7.95118876 1.14644661,8.14645091 C0.951184464,8.34171306 0.951184464,8.65829554 1.14644661,8.85355769 Z M14.1283529,2.16552193 L5.12835293,12.1655219 C4.94362342,12.3707769 4.96026262,12.6869219 5.16551763,12.8716514 C5.37077264,13.0563809 5.68691756,13.0397417 5.87164707,12.8344867 L14.8716471,2.83448667 C15.0563766,2.62923165 15.0397374,2.31308674 14.8344824,2.12835723 C14.6292274,1.94362772 14.3130824,1.96026692 14.1283529,2.16552193 Z"/></svg>