<svg width="16px" height="16px" xmlns="http://www.w3.org/2000/svg"><path d="M12.1666667,7.00000005 L1.73447404,7.00000005 L4.85509393,10.1479939 C5.04950155,10.3441069 5.0481191,10.6606863 4.85200615,10.855094 C4.6558932,11.0495016 4.33931373,11.0481191 4.14490611,10.8520062 L0.144906117,6.81691831 C-0.0495067868,6.62080002 -0.048118202,6.30421009 0.148007565,6.10980473 L4.14800756,2.14489261 C4.34412799,1.95049254 4.66070741,1.95188716 4.85510748,2.1480076 C5.04950755,2.34412803 5.04811292,2.66070744 4.85199249,2.85510751 L1.67926892,6.00000005 L12.1666667,6.00000005 C14.3639756,6.00000005 16,7.69876041 16,9.99999986 C16,12.3012394 14.3639756,14 12.1666667,14 L9.50000001,14 C9.22385764,14 9.00000001,13.7761424 9.00000001,13.5 C9.00000001,13.2238577 9.22385764,13 9.50000001,13 L12.1666667,13 C13.8030961,13 15,11.7571988 15,9.99999986 C15,8.24280102 13.8030962,7.00000005 12.1666667,7.00000005 Z"/></svg>